<mxfile host="app.diagrams.net" modified="2021-09-08T18:14:40.201Z" agent="5.0 (Windows NT 10.0; Win64; x64) AppleWebKit/537.36 (KHTML, like Gecko) Chrome/93.0.4577.63 Safari/537.36" etag="jbA9wd3eJYsfEB_rwNIs" version="15.0.6" type="github">
  <diagram id="zD5V-qKyNSEV5E0dPMwj" name="Page-1">
    <mxGraphModel dx="2503" dy="1020" grid="1" gridSize="10" guides="1" tooltips="1" connect="1" arrows="1" fold="1" page="1" pageScale="1" pageWidth="850" pageHeight="1100" math="0" shadow="0">
      <root>
        <mxCell id="0" />
        <mxCell id="1" parent="0" />
        <mxCell id="YB4SYMOb8FPgEB0KAVOm-1" value="" style="shape=image;verticalLabelPosition=bottom;labelBackgroundColor=#ffffff;verticalAlign=top;aspect=fixed;imageAspect=0;image=data:image/png,iVBORw0KGgoAAAANSUhEUgAAAuMAAADdCAYAAAARknxQAAAAAXNSR0IArs4c6QAAAARnQU1BAACxjwv8YQUAAAAJcEhZcwAADsMAAA7DAcdvqGQAAAAhdEVYdENyZWF0aW9uIFRpbWUAMjAyMTowOTowOCAyMDo1Mzo1OcPumgoAAJncSURBVHhe7Z0JXJTV+sd/ssywDvsOgiCLoCi5YhiuaWqWmqmp2TVt0ayr3f7Xbrcyq5v3drPFssW0RU3Lyq5bmmWRmIoLiYIIgoMguyzDOoOD//MugOAMMwMDA/h8P58Xzntm5sz7vvO+5/zOc57znF6BgYE3QBAEQRAEQRBEp2Mm/icIgiAIgiAIopMhMU4QBEEQBEEQJoLEOEEQBEEQBEGYCBLjBEEQBEEQBGEiSIwTBEEQBEEQhIkgMU4QBEEQBEEQJoLEOEEQBEEQBEGYCBLjBEEQBEEQBGEiSIwTBEEQBEEQhIkgMU4QBEEQBEEQJoLEOEEQBEEQBEGYCBLjBEEQBEEQBGEiSIwTBEEQBEEQhIkgMU4QBEEQBEEQJqJXYGDgDTFNEARBdGdc67HywWpMHFIFPyclpJLrgMIdb8y1w6fiW5qjxtbtWYiWsaTKGopSGyTH2+GDr81xrEp4B0EQBNGxkGWcIAiiB7BgaTkSN8uxbEoh+npUCULcECQ1kHlcQ/TMLCbQC3DwiXr4iS8RBEEQHQdZxgnCZLghYsccRHJWSY3kIH7yLmSLezoZG4spf4uE1uIyf8H2p1LEHaLHYFuPt18vwLTgGmG/xh7JCTIc3CfB7uReet8/0RHXMXFKNSYNK4WbtZrlmEOR6okVz0rxm/AW4nblwT44tTxIe92SlYSQ+YXijh4YuzyC6OYYxTJuJrWHq3cQwvpHYVAk2/q6QSK+Rty+WK/Yij7rtsLvyRliDtHd8Ht/Oebub9hmIchffEETw0dgUuN7l2PKy27iC0THcQNvrM0XhbgVik744dEH3DDtP1J8YIAQ5ziWbIHV/5FhxEI/fJpoz3LUkIXl4+2XrncpC3m4mbmY6qp4YtS85XjyseWYN5Kegc7BFl/+OB5pR8Ttp2CsEF/RhO9fw5vey7YfnxdfMAXh0/l75cnHpqOfmEXcfrRZjJtZWMPJPQDB4QMRGdoXvq4yWJHTC9HIDDgMCoBH3wDY2laIeURzipA8Zz22T26x/TcJCvEdBnE4DvtalsW2fSfaVJoGPBE4W6stC07TIuAkponOYfSSctwXWMtSVsg+4IlZayzbb8WuMsMb/3TDGyfs2A4T5MML8cFc4SVTE+t8D7688yF87WAj5nRF1EC9mOwpfHMZQ0b9jJAW29ozbZxYYOzyWmLtg9jlYvoWzLBiuLeY7gL0tHuFaBNtk88SNwSFh8Hf0wm2FqyIG2rUKvKRXUCii2ggBNaiMqvJPiQkiG6LqrIaKvbftX84k32a8EVAMCeQlFBxbyQ6HlslVk4ugZQllZnOWL3ezCBLuC4+XeOGg7mcFboWEdMqsVjINilB9q6QmckQNXBmFxfkhKlQ1nCjRBYIj3JltZIGhrojin/hOpScNxZBdAHabstmAryqLA/Zl5KRdD4JqfI8XKviLDQEwbjTC0JTWYKqi3yC6MbUJp9BZiVLuIYiaKyQ14zpoQjgDKnFSUjOEbKIjiV6YRUieH9AB/z2gVUH+HX3wtJPXVHEJWXlmDafzzQpm7O+wttZCnZogiD/0q6ru6wQnU3O8QzwVVCwN57UoMZH3OspiPT0y0gUp1kQhKlpmxivK0I6E+DpV/JxrVqFepoCSrQk2AW23H9VMZR/8jlEtyYHGcmcu4sMgeNubeE8RoXyFvPcU4mgiHidQT0WDykTkql2eCNVSBqdEzY4lsMJXiUihtd2Ad9xNT6Uf4fNOYIgH3HHQyTIiebU5ONYFpdwR/SjLSWOBI8OdGX/VUg8WixkEUQXoG1inBPfJMCJVrD0chVurrJrIONDz0Bx4CJK2X+74NDmvuG2IfAP5ARRPuT/Uwp5RMfir0SQB5eQIvmU1KjuKc3phXWnHIRkYC2W8j1sU1ONtRktBHmXOK5bqa4y1nwNwhA+PJXL//cNc8cIPiUy2Qvhzux/TR5+2yRkdRlqFW2bK0T0CIwb2tDOF4MC3VgNlIOUS0W8j2m3xXcOZI9MhXeYN+xkEliI2fUqFSoK01C0/zsU79XXF9oLZuMXwn3ySLj5OsPaSuwFqVWouiZH3g/b9ShrFfrsngqP2vM4++ATgsB1nQr7R+fAZ4A3ZOwYuTLrWZkVOedw9au1UBzL496lG9vBsBw/FS7RwXD09Ya1rQTSFsam67UqqNkvWvbrJ7j84fdiroD9m/GICBV3DKT+0l4krFwr7nUOVtMiETQuHAHst5BZN52oqqYExalpSN51BsWnWncmNH96Fh6c5CnuNaBGbU05SjJzkPnTcWQfaqMwbQxRaGBoQy3IXl6IKcNlbQptyEVTiQlkQvzEDux7RYngzxZiiIcSqRs/QeIu8U0LJmPm3CBIxPKbf4Z3cuDxXrcUsWHsehefxK6Hj0Nvp7aG8pnYT1i5ExkdZQXuTiwqQ8bMEpZwxjdTHNGhwSD8a/Dbhjz4wRqJG73wwA9ivsmxwUshszHfywa4ocDx01vwcJcYlnHDqLlz0N8euPr7euxu6/3qK8GKR3xw9x2e8HW2baqT1dehrCxDytnL+HZLOXa2Wr4Z3v9mLO72EncbYO2EslKBjIxc7P6iEJvPiPkGsujdaKy6g/WEjBSKsO3lcdFUojHCDsjY/zPuecMZP/x2B8LNi/HTyj/x1EnhXbPeHI7XR9hDceYYhjyDFp8R3sNZzzf+7y7EcqI9/U+MXVQsuL3oQUP5qMnCh4vS8bY+Hwybjifv8gUqkrBzexzaZa8388Sw+6ZhsJsUyqKT2Pe/4yigCaLdgrZZxnsythNg+8+diNrwFMKHBcDxJiHOYSaRwMG3P/o+9jKi1r0MC10WGVcmwj/ehiFPT0VAX2fYNghxDnMJbN1D+LIGvLmy2ffcQoMPtkopTL6Ofh2BG1Yh4k7hGBvKNGNlOvgPRvjzn8FzfMsauCUhkD65FRFb38XgRycgIFwoq6UQ57CwYvlWrNZSHRNzGpjBzkFMtgFF7mkx1QmEBSDqy+WY/kQsIoPdmglxDom1M7yjRmDCmqWY9HpAq+E5nbw1xQ0xhxVXRkQkYlY8humfxsI1THypR6BA5ql89l+KwFFBQhZL+8dwQlmNjBOtC/3cXy6CczuHawT6TeGz9MJvOFc+I/sS5B0pxG3uwqnYZUhr6zb0LiwSi+poFvuKHb0CCVo+kUYnSwLOCM0UBlz9tNtuFvkv0HxdOmz7iyDEOTgL+eAFXdZCbiixTwbj6Na78OTEIAS53STEOcwtIHVwRdRdQ/H6R8Px9ZOttRz2cHMUkzfD2gmujPA7IrHq3btw+F0HxIov9QxKcDCZM1mx6zSzoSa3xwMDuZCdFUg82FqvTYVNZ0RJHOyLFUOFpG5scS/XA2Mo0/P1E+JGRnbHOF6Ic0jdhmJwQzVNdHlIjN+M7Rx4rmfCeJiXEKGgOA2Z2zbi1KpncHzaLCSsegVntx3D1WIVL4ilfSdg4Oqn+I9qJHQV+mxYgkAvTiyrUJZyDMnvv4JTS2fh+NIXkLgpDnniuJRt6AwELIsWdjQR5sKqEkZVJeq4cp+NhbtlJQoT9uLsS8+x41uEhJfWITmhBHX8B+zQe8ZjrfzAg2G95j0MvCcA9qyir68qQV5CHFI2rcOpl15BwqIYVibbVrLjZfuJm/Yide9e5J9uaW3/HvkLxfc2bntRwL+mQvamlq8131L/20mRVsLCEbP2XoRx7oIMRVYS/ti4A7ue2YDtkzfguxd24NChNBSLPjVOUfdi7MstLd9NFK/65JYQgt889wX2bIxDUpaCSVPAyjsSE16MhayHCAQO9efJvKVeEhgKb+68/MMRwDkSq+TI2sK9oxX2JSKdb+Ns4DtSw8wqTfhHITCQSzCxH5/IX1cCCHIWxxUU5tgtpDoQc2SL2sTBtQv/Al3cZUVfYp+PxPsP+cONE+DqKmScOY8P3/kdS5b8jJAlv+HZd07ip9Ry8N0xc3tEPTQYX2oNPVmO2Xe3CCE49zCeeu0oPjyYgYxKriWTwPeOoXjrXVvN0Ue6KR/G5fJuH279vDCLy3jEE+HW7H9JLnbv5zK0c3xTDlL4W52J+cl6yqRHvBHFTWJnYv/4PtNEllMqb/ZHUENNFWa3gdxUGomG7J3XER7I9aIrkf3lW7j6rTahyMT6Pz/DwGF2TOyWIPO1aUwUiy81MhWun65CX85qrMpD2ltPo0ST2wjXAdjwFAI4Q2vVeZydK7qgtED6zwOIYt+HzENIrotFP185Uv/1AhTnWpbpBevXt2HgAO485EiZNl+zH9rszRg8LwSW7Fcq/vl9XHqvuetJuxjzLiJWDGadB3bey2ehhJ9MY0qcEfzZPAzhfGxVRUjcuBOp+7TUUrYy+P97DkYGct2xEiS+sg2pJ4SXDMF8SiwmLIvkfatLj2zDgTc4lwI96bJuKoLLSYO7Sfau9ThmLbjrVCbuwp4XBFOQNjcVDvNl7P1TWCdHlYG4efuRq8OtwND33y68vSET0/y5a+yPqDUahrKMzMo38rAsktVMmd4IWq45uKVpscHrYQ9hlgd7butLcfzMVyZ0WWmHm8pkPxx9PpSVwIRVUTo2/CMLH2r5vO94T2x8vj+CuKq+JB0v3JeFncJLBmCGJ98dihV3CBbjuDdOYIkOoXozXddNhctrcDepwvH1x5A49i48GSFBzs+HMfYVrhOi6TNNPPnBnVgRydS7ntfW0Pc3Ykw3FfYcBI+djlG+Vii99AsO/iFHtfgK0bUhy7iIxbKVCBOFuPy9v7QixDnyoHztFVzKqUTet+s1CHGuvIUI5N03WHkfaRHiHFU7kL/jvCDAbUPgfB+fewtSV77LDWWdPzz6XEPa6kUahDhHHmoyhckrrWE/hBPirN3KiUOmMYU4R7C3YMVX5KLK5EKcsWAEIvnJbtVI/WKHdiHOUaVA1t93I7mgCEmf72mTEOdQ74vDb0cEAe4UFdWjFsPJPSnnO9p+Q2IQFsWNHlQj5w/9xmTVn59FBvdhSRCCHxGGU7UjhW+kMDpRm5pEQrwRNdw6+YZS1HT1pqIaL6R+ha15THqYOZnYQq7AVbkcWVlyXDVwRt5LDwTxQpzzOd78tHYhzpHzcz6WfHoZRUUZ2Ly+LUKcox4fPpOIOL6qsseIKYKbRc9Ahd0Xytl/W0TF9kFsGNe+FyNxv35O1B/uyxHCejr74oFH+KxWsMfoYM7szn6Xs9mG/RbX5Ehn90rWVWMYMKuRfngbNn+5CbtIiHcrSIxz2D4FnzFe/MWoOP058n/WIpybcQwlSych60tNon0h3GLE8hL0KO/H8yjjn0IJpB6a/LznwEZ0r7DsGwL8ug5l7Yzd3YtT4oy60lyjLwAm9RIr9NISYSjVxDT5HJ9BUsOkw9aoykfSX3Yg+RsDW9IW1B7IEKwcdp5wjeKzegbbk4SY435RQienOBkX9vGv6KYqDenJQhPhPTxKywJCIg0uMKxJkR8xgQNmN6Awr+Ot4t2HaqxJ+7pJkA+8D2/xD35no0TmsT3Yf3APTuu2izTh647oYMH/O+dohl4+xznbM3DnjMtY+7OY0SYaRCuru30dcS+f6hns+S6bn3wpjQxCOPeopOfgbXEyp072Z+M4/xtYI+ouLQsINfCo6ALDif09BraoRYn4md0r+39PoWgqtzEkxjnmjIAHV2mr5Mj+fIeQ1x7ui4Ynb5XJQ94WfcorhlJ0AbV21zSNJgDW4irkZrXncfXz1qdsWTiJb1Zc0yqG6xRCH1waejdc72IC32h4wVq04lcVd4XVfnzhKvZvshM72ec4sUSMuW3Frgmf6CHkQJ7eZHMpvZCmf2QURunuZD5Eoq6JnOb39QW/aLXiEjL0Ffu3GZomW9/uqNTXhYSFlJ/7022Y6CAKvkIkbjK2iaR19pSIzpESiWCZ7ymcZNeysVNzHSlJ+kdG4UYN3j4h9qZ0TORcMVSYZ4asXP3FPkHcBIlxhiwigL8Q1y+fgcIIbhWW4QHCg1koN7w8tYaBqjENq1kC5X/uRY2O4XprDy4mE6tKCvO0ivGabT+hgHcX8ELfv23GkO27EbjmTdjf3cokUr2IbVwGvyovTkiYEltn2PIWCwVK0/icTqQU5bypwwayAD6jx1C6ZR/idsfhj90H8cdXBvjDc5xIxAXeEd4GgeO0dQRlCORdYNh3nT1HFiMtOLjTDK0mhFCHi3xlYqjDb/BU+8f9Ow1fL2uh3ais6PxVbOVVwjNmZ4ueFYCDCeqvz2DPwfNsS8S2d8RsPcl5J1tcpdMVIx7UNsziLLrAMLF/qtAAsU8QTZAYx5zG0HxlcuOIR2sP0b+7II09noZRXajBf7vBBxuVKE3Yy6e00xRqsKqoFfV5cS0uP7EOqZcqUcfacwsmWt0HRSPiqTcxYnc8Bn66FZ5PLoGloRZd21DRil+Jmkx93H06mOFOEJcsMS62UsjmjkDUx/Mw/buleHD/csxtue2ZhQhxkKLHkZqP3I+SkPVRWhs6sEpkxWfw/pGSsIHw9xdymzE8XFzUpgQZBwwU+z2epugmnYWbg6E1WSfTS4a3wh7qgjHH9edut45xcve9wxYvvRmMw3vvwrlfxiLtyPhbt8f7sO5vzyTnhxI8+1o+28rb4FdfgW/PCpFR3Ab640k+1Rzfv3oKLjDqQhw3UOwTRAMkxhEAK1E8Vl00RszrJv/umlK5kNBJkxtKPR+IuTmNPti1cpT/KiS1E9Joma7O0zExs/h7lK2chNPTFyHh/e+R+accZawB4wZIrd0DEHDPQgzefBiBy2YI79eHaGcITUoFajo8ALKJGBmFmC8fw5QFQxHm5wwra3Mmj1hdXKNEbcPGGSzNhXxCA1tEv3N4ImDqrc4EVmODhEmv2SnITOSzOp5uFGccauHOkjl3jkh2txbG2BRF4mQTDXR+nPGbtrsW4F4ukko3FeIdxbw1kfjx3WjMH+EPXwcJpBKuya+HskbVuPHw+YQmdn6TJVi7rd0xWsNEzkWRgvVLmZyNzl2+juhJ0BPYsJgO44aRR3yVpXrG0G50Q8lDxXE+cRNNPtjXs8SoK63ReD6VqEnnE3qQhvqf1qHwpflInRuDhKVrce7H0yjkxy0lcJ/4FPo8Mph/p04CvQUxrsjV6U7TKZwohTg1CRJjmMi5eOX/FwM/zvWlpgip3+7Ed4+LccZnfoJdDdu9XN4OJJF/hRZycCFRsHjfOpHTGQH9BFer3KQUii2ugZQiIXIDXK9jgZDqQK43Rm8pL+3CTQYnxE0a0rB9/FQkHri5hVFG87h45avGuPOuL8q8LOz85Dc8PJeLNX4YA+7+vXHjY4+vzyBXMG2czMdv6VynV8NETl9X3BHITbqtQcpJ08QWJ3oGJMZNMtu+OZbD+ghuKMVyVNwy5N/kg10m18PUHOwiiGFVLqqO8jmGk7MXVR8+g8zH34ecn2kngUfMnNZXCBWRuotWfG5xIiFlWqpKUMX3YKRwDW7/QKxs9lD4cfdMZRoOPb4DiZvzoWpvIPDblNqvUsBPj2o5kXPsAARxo0uqDKR/3onxeKp/x5C4DxDS1u3k79gsFtXRbMkURxOc6hDeMd4NTfjXgXPD5kLE5aT24rM0sTlri+br0mHbZ9hZJN4fDUK8svt23XLyaoQ5PtaOCJ/IZ7UDWzx6lyjEU09i9oPpeGHLdTE6CGEoa36/Kvw2LSZy+i7wFlxUSnLw7edCHkG0BRLjCSWitdmOCUk+YTRsvOaIqVawXQL3QYIVsPxi3K0CttEHW4WaHN1uNFLWU+d/1LJruq3ouuBioB8V/b6tJIa5XNRUGD1kYtvIQbF4Cq79w1sPpacTGTwCBEFffOoYinX57dp6oSGwTVsxM6bQMtenO9WJZCUiPZUTT80ncspGBfD+q6rMSxRbXBt/SMTFoKoQMZ1PdBjRU2rAR5hUWSG5kxbM1Y0NXg9/CLO4pb97gBDnOVguTv5zQPj4dlqJJjojiB9QLcfxb8uha6kv3xD79vmMm5sZd/VOY5fXXj7PwnF+IK/5RM4nIwTRUJSW18Y47wQhQGK8KrcxrKDbkJVCQh+Y0NJMHGp5azJgHziYX1hHO16QrpgJH05wqeS4ukPD5MxGH2wmrv/kE63SsDjQ9dIsgyePaqLR0s3aOYPEtZ2LXpb0ziD7hDBZEK53YMgTDU5JbUEKiegdUKPQPagreTRUEDGGkqGAMHXADc5384l2UVUqhiF0d2NNSdci95eL/Lk2TeT0RRA/61WJzCOdHv6m+5BlhRR+WEGJiChl2+4zvbiBBweKw+85UmwVUiamBwpxjpxCHOPdIdiTPzQMb93JJ9uGgwVvFefuD0Uyn2gFC6wS/Z4NJaVcNPm42AtLzrcTY5dnPFTYdEawvjRO5BzqiWi+zipG4jddJ2yPjWc4+vePRP9gT/EeILoDJMaxESWpwoNkEXo3/GboCO3nOweOa3cj6uOXIeqyFuRBkZInCFfXwfB9VFt5XrBc9h7680vqq1Dw4wcao1KYhYo+2LVMjOuMWtE0ebSyoP0xvi1mfIS+3BL8jPKUQ3q5ndSVig23ewBkoUJSI1o7Mx3AluNIKuAS5vCbNh8xTwsjEYZThEqxo+UR0npsdqtHJmPiBCA1qQ1roGXloJjX+lIE3h3Zbk8q9flCwR/UOhRh7eqMdAD7EpHOt3Ge6PcQ+12mhMKXu+UqMyDXZ4Gm25Ze2JLoKCTDKrB6uJA0OmOrMNqXE7pSJJ+wEq3xpqS5EE88+13PEOIia77NEFZ9NHfHvWsi8f79fLbh/FEj+oA7I+gBPqEZXwle2jwcd6uzkKIheIAujp8vF+sWH9z7z/abX4xdnjE5vikHKdytxo5t4l+BEZM9Bet9Tj62dqHY4v53jMOokbEYFewsuNYQ3QJzJyen1WK6/Uhk8HRi0rFOgaKS6m4z8ep6LhPGo0NgZy6BbNBo2A0MQU2NGuqSLNyQDIZFRDSspz8B7yf+iuAHY+DuZg0LqSPqqr9AhQbNe+MCayTvGQQHiTnswkbDpp8XqgtqcL0oj1V+sZCOeQzef38GwZGOvPW4IuFDpL17QPhwC6zufxKeHubA1bOQ/6gj9KLtTLjPC2LiXYWin1/WeGzWK7bC7/5YWAQOQi8ra9xw8UB9vuhIyI7NInA0bB9cBK8l/4fgO714t4760tNIffk9qPVQ4zcKw2E1OYg1mfZwuuse1KnUqLl2ATeqQ2A26A5YxT4Jj2XPInR6P1z74UAn3SM1KLlYCccxgXDgJkf1jUT4ZB/WH6pFzXUV1BV1uMGdm58NrILYbzvIFz7jQyHzyIGixSTYygB/RITYwdzVD+59y1CUWQqV0OqxzpcN7Cb2Q8Tf7sOoEW5A2u84VemLEF8pqnJSkXdVCXXDe1ulGhWBwegXYA1zxwAEjrFHleoaapXc580hibKHbEwoAqItUXxGjwIvsw7S+Eh425nBITQC7uE1KCutQh133g7snENd4HJ/fzhrOF+HycPR2wlQXj2P9Dj9OhaGfaYGpd7CNbV2sYDSNgABXpZQJP6CJD2/73YlJ8USd00uh5dEiQB2ryTts4C+8Zv0ox6bXsxHqN0NoNgVb6+RQKeRtUO5VYjPLu9h90i6AhmedpgYbAsLc1sEjQzAwnFAqKsSUlk9quU3eLE6YowEUaHmGHevG+bOtEHQoSqcEkoQUFQj8u4+CJWZwa2vI4Y6lyEv5zpyxOoi/E5rzF/YB/9aMRAx7r2QcuAiFMF+TJvX4GpuMUqU9Y3vbZXkagy93x8B1maQ9fXG9CE1sFErYcF93tsC9w62xZy5Xrg7sByH9RjZbXt5Ekyfzx0/UJqeiW3xYnarGPgZdk2dhnoh2kMKN1kdnF17g/NazIhPwr/1+r7OwBkhgyPhyR6R6pzTOHulDT0swiT0CgwMZDWtYUhcQxDubbgza1VuMtKLu85wTjPGv4mQJ6LhrIcZsiLrGOSfrEPVuVbiaEe/jr7PxsK11fJUKDz4PjI/0BaCcDCcP34XIV7s2p1+H+de0bGa5/h3MeDpwUyM5yFt+SywvkQLFsJr+xL4G/DTVV06hNQXX0GdAb670hW70X+Msw4XnTykPj4LZZ0ZijwsgAnluxHprd/gXekf23DgtZYxrm3g9+58xAS3XkZtVjwO/S0RZn9biCnDm3tjZu9aj/iN4o5W2Pe8z74nsJXvKU3EnnnxokuLDrgoMGvHCZNPtaDpfP3eX86OgbVDJ3Zg3yu8zU4nBn/GNgTDtk1EUOOxlSDxlW1IPSHuElqJXlSGTTNLIIU5u94+mLbGwmjW68UvFeL54dzdZYPEjZ544Ach35TEuk7F+/2ckJLUA4X4TcQ+2QcvPxDEC0XdVOD4Oyfw8HfibgN3uuPHNZE3PVeaUCHn15N4+CUz/OvHaIwQBkJFCrFzVBJeEPe0osf3KE4exZCVes5ialN5tvhSPP6M/T/jnjfE7FZpw2cm++Po88FNq5Sqc7F1fgrWdJmJsZ4YNW8W+rM2Pv/EJ9h1lmzj3QVyU2ng5+eQ9sQ6pCTIUaZQNfOPvl6rQnlOGuQ/foHTi2KQvPy51oU4x7EXcEksr7z2Jn9rtQrK0jxk//49EheNbUWIc9xh2GqWDWEFtbm0eCmhTJejuJQdAzsnTT7ldfy5yoXjWzoL51YaJsQ5lG8/jrOfxOFqobCgUAP1KhWqCuXidexkIc6RKkfy4k/wzdv7kZiYj9Ia5a2WebWajxNems1dJ01TVquR/cwm7Pk2CdmlSqhuKkCtYp/LSkL826wSfDIRle2afMi+5ynN38Mfo6II2Rfy9J+km5qC+MU7EH8ih523utl5c8etKMhBdoaJZktWpSE9+SZhlZ2CdBLienFssyPWneAUlBqy4bnY+VodphluJ2mObT1Wv5UvCnFO5LtiRRcQ4hxxxXsx++hXPVqIc8R9eBljFx7G2u/SkZhXAaVKw4wdVp8qayqQk1kmuLa05Ggh7ll2FDvPFEJRc3Ntz8UZr0DGmSSsfeZ3jH2ppn2rRmr9HgY7RkVRIVIuGyAKjV2eMdmf3SwiDRdbvOsIcQ5ncM4JXH1QXUFCvDvRJss4QRCEcXFG2JfzEOWqRsb2DUjYImYTenADb7yTjweDxa5ZjT2SE2Q4uE+C3cm99LaUj466jtETqnBfTBlk5lx3jQnxJG+seN4SvwlvIQjC1xU/bB2EcPMKxL1xAkv2i/ldAecYzHsgCjIocPbbL/AHLV7cbSDLOEEQJsd8SSwiuMnHimSkkhA3kF54/q9eWL3PBQpOQ1tXICL2Klb+5zJ+25fJOjeVWCy8UQNqbN3O3sPet+m1K1gQe00Q4mpbXNrjh2kkxAmiGYueCxZii2ddxqauJMQ5bKRiBBUFSkmIdytIjBMEYVr8QzB8ii8kTBhm/3JciKZAGMyWDQ6IWhSAD/a541KBLZQqA6NRqKyhKHDBse/8MX+uByZ+ZNYFoqcQRBfiwT5YegfnB1KF47sLccuC2abGTiaI8YoSza5LRJeF3FQIgjAdtp4Ifn8ahniwJiQ3Ht8tTkQXneJNEMTtzJ2u+OGfgxBux/mKn8Q9TzQs0tR1cB25ELP6y1hdGocP9yaJuUR3gCzjBEGYhsggRH04SxDiqhzE/5eEOEEQXY/wmd44vEYQ4ijPwNuvdT0hziGzEWZvV5cV8v+J7gNZxgmC6By4OO4B7nCO8IT38AgEetiAj1ejLkHSe9u60FLrBEHczoTfKUFQoB1GBzsg/I4+CHIQ7ZaqfOx86TxeOCrsdjX6TV6O0b4U1rA7QmKcIIhOQbbmUUwZ0nwFUHVpGuL/fRC5NKJKEEQX4a3t43Evv7xmA/VQ5mVgw0tZ+DBVzOpyuGHU3Dnob69G5s8bcDBTzCa6BSTGCYLoFGQvL8SkSCnqaktRIM9Gxm+JKDhE1huCILoWr28di2nu16GsLENOdiHiDhbi7f0aYr0ThJEgMU4QBEEQBEEQJoImcBIEQRAEQRCEiSAxThAEQRAEQRAmgsQ4QRAEQRAEQZgIEuMEQRAEQRAEYSJIjBMEQRAEQRCEiSAxThAEQRAEQRAmgsQ4QRAEQRAEQZgIEuMEQRAEQRAEYSJIjBMEQRAEQRCEiSAxThAEQRAEQRAmgsQ4QRAEQRAEQZiIXoGBgTfENEEQBEE04VqPlQ9WY+KQKvg5KSGVXAcU7nhjrh0+Fd/SHDW2bs9CtIwlVdZQlNogOd4OH3xtjmNVwjsIgtDMg/fXYNroKkT4qiCzrmU5tjj2lgfmHxZebw49az0JsowTBEEQt7BgaTkSN8uxbEoh+npUCULcECQ1kHlcQ/TMLCYaCnDwiXr4iS8RBNFEeGwNDm6/gjeW5CE6WCEKcQOgZ63bQ5ZxgjAZbojYMQeRnGVDIzmIn7wL2eKeTsbGYsrfIqG1uMxfsP2pFHGHILRgW4+3Xy/AtOAaYb/GHskJMhzcJ8Hu5F5634/REdcxcUo1Jg0rhZu1muWYQ5HqiRXPSvGb8Baiu2DsuoXqqkamPVGGtfeWQMrvWaMoWYYDh61x8IiZ3hZueta6P+0T4xZWkDm6wNXJEbZWEpj3ErLrr6tQXXkNhQWFUCjrhUzitsN6xVZ4su759fTvkf3h92Iu0UTXF+N+7y9HTKC4g3wkPLkTGVnibkuGj8Ckl4fCSdxVnNiBfa8UiXudhJ8zXB+IQsSQUHg7mfNZ2bvWI34jnyR0cgNvrM/Dg4GcZc4KRSfcsGqNZfsadCbun3/+GhZHVbAdJhJO+GDaGgv97+sOJtzMHCn1nIAhtNLlxXiLurQmBYdm/oJicfcWFkzGzLlBkIi7pqojRi8pw4b7BSGuLHDHlv/Y4Y1U4bU20cWfNUI7bRPjvSwh8wpCgKu1Dj+XeqiKL+NingJqsr/fZsyA5xcrEcCUWdnvryD1v4fEfEInjQ2VgWJcC7KXF2LKcNZKtVuMA8W/fYFD/1GIe81xev1RTIqyEfc6UYy72sBp2lD0G9UXvh42rAlqDolx/WkSB1bIPuCJBevNjNaQL36pEM8Pr2QpKyRv9ca07UK+KYl1vgdvRbgiI+k7zC6vFnMJfWlP3aKJtpfX0rChRsaWDUjQeI9J4f/xYxh5kx+HSeqIsFocfCMXfVmPQJnjhTdWWmOLkXy9u+KzRrSO4T7j5rbw7huOQF6I16NWkY/sSxdw7nwi/kxi27mzOHfxEnLLVexVM0hcgxDmZU/O6bcdIbAWTaQ12STEuzuqymqo2H/X/uGseteELwKCOSGuhIp7Yyfit5p1Ah6IhL8oxNWqEmSfSEK26GVB6ImtEisni1a6TGesNqIQ5/h0jRsO5nK/UC0iplVisZBtUoLsXSEzkyFq4Ex87dDUkSS6L5WsruKswn5DQ4SMlviHI4AX4p1fV93M80tKeCEOlTP+97bxhDhHV3zWiNYxWCOb27rAyZrJcFUZsi+eRao8D9eqa6Fu8Ea5UQ+1sgKFWclIza1ighywdPWFq+AQRdwu3OkFoWkrQdVFPkF0Y2qTzyCTM7S4hiJorJDXjOmhCLBj/4uTkJwjZHUm6soiZJ2Iw6GXNuCb+7ch/pUUlNaJLxJ6Eb2wChH8uL0DfvvAqgN8TXth6aeu4MdKZOWYNp/PNCmbs77C21kKdmiCIP/SruW4CtHdKI0/g1z2XxIWAT9bIe9mzO/rC2/2X5WahHQD50kaDf8aTAzjvtwc2Ycd8Hx7XFM00vWeNaJ1DBbjasUVpKZfQnr6ZVxTiplaUBXLkcuP/FnB1VGzPY3ooQS7gK8HVcVQ/snnEN2aHGQkc+4pMgSO8xWybsJjVChvMc89lYjOjqqVu5oJ8Ad34I9XklB8inx/20Y9Fg8pE5Kp7fRbbY0TNjiWwwleJSKG13aBiA9qfCj/DptzBEE+4o6HSJB3d2oSkZnJJXwR+EhLKyCrv6I82X8lMo9ksF/fNEybXSXc+ypH/LZZnGxnbLrcs0a0Rpu8R9Q1FajR6y5WQVEmNM0SO3tY8inidsDSy1W4ucqugbwFegaKAxdRyv7bBYc2TtLksQ2BfyBX6edD/j8dPfQOQF1MArzd+CsR5MElpEg+Je3ACV+9sO6Ug5AMrMVSDZbLzqcaazNaCPIucVxEW8k+kcG71XlHhjefQzI8XLjPKzMg3yVkdT43MClYnHeTaYXVHWa96IrPGqGNjg9taOeLQYFuwPVCpKdc7XSrWZvxnQPZI1PhHeYNO5kEFmJ2vUqFisI0FO3/DsV79fWF9oLZ+IVwnzwSbr7OsLYSe0FqFaquyZH3w3Y9ylqFPrunwqP2PM4++IQgcF2nwv7ROfAZ4A0ZO0auzHpWZkXOOVz9ai0Ux/K4d+nGdjAsx0+FS3QwHH29YW0rgbSFceh6rQpqVr2V/foJLreIjGL/ZjwiQsUdA6m/tBcJK9eKe52D1bRIBI0LRwD7LWTWTSeqqilBcWoakned0WlhNX96Fh6cxFlYbkaN2ppylGTmIPOn48g+1EZh2gUncAqTMZUI/mwhhngokbrxEyQ2NGYNkQnE8pt/pmkCp/e6pYgNY9e7+CR2PXwceo8QN0Y+yGf3yk5k6GW1bZrQRRM49WBRGTJmlrCEM76Z4ojnhdyOwb8Gv23Igx+skbjRCw/8IOabHBu8FDIb871smF5S4PjpLXjYlA2WrQxOj0Sh35C+8HC1gVVDVaVm9YyiCPJTJ3Fhixy1WkOGcEgR9OljGMb5ZdyMWsnKKEV2WjLSNqdA0cZKpitO4BSe9yAM+2EygiTNI0BZPT8P00c5i3UTtNQRzgj7ch6iXFmbkHoQ361ME/N101A+KlNw6C+/oFjj/aPEwX1X0Zd1Ey5954+Jm8XsjqC9z5qZJ4bdNw2D3aRQFp3Evv8dRwEFyOsQ2mQZbxMWvVg/rRtgOwG2/9yJqA1PIXxYABxvEuIcZhIJHHz7o+9jLyNq3cuw0NXbdGUi/ONtGPL0VAT0dYZtgxDnMJfA1j2EL2vAmyubfc8tNPhgq5S8Hz6iX0fghlWIuFM4xoYyzViZDv6DEf78Z/Ac7yXmaiME0ie3ImLruxj86AQEhAtltRTiHBZWLN/Kjn3/MTGngRnsHMRkG1DknhZTnUBYAKK+XI7pT8QiMtitmRDnkFg7wztqBCasWYpJrwc0hr3ShJN3M9uwiDmsuDIiIhGz4jFM/zQWrmHiSz0CBTJP5bP/UgSOChKyuMgEMZxQViPjROuNZ+4vF8G5ncM1Av2m8Fl64TdcDEGWfQnyjnKf6Ahs7sKp2GVIa+s29C4sEovqaBb7ih3HAglaPuFGJ0sCzggN1MDVT7st6PVwDdekQ7e/CEKcg7OQD15gMgu5ZOY4TNqxEJOmCBOTG4U4hzmrZ5w8ETbhXkz/jInGma1NPGX1nMaqSsqXETx8HKZ8/BjGvtx6fdf9yEB6Mucj64nA2Uxt8/iiXxQTyihBxoHWojyVIP0EV89xfucD4e/PJ/XADUEDufKZFk+/qEWIM8bWQWgybZGTyCc6Dj2fNW3I7hjHC3EOqdtQDG6o9gmj0/FivJf4FTUqftioS2M7B57rmTAe5iVEFChOQ+a2jTi16hkcnzYLCatewdltx3C1mIsUw27OvhMwcPVT/Ec1EroKfTYsQaAXJ5ZVKEs5huT3X8GppbNwfOkLSNwUhzxxtMo2dAYClkULO5oIc4E997+qEnVcuc/Gwt2yEoUJe3H2pefY8S1CwkvrkJxQAmHemh16z3islR94MKzXvIeB9wTAnlX09VUlyEuIQ8qmdTj10itIWBTDymTbSna8bD9x016k7t2L/NMtre3fI3+h+N7GbS8K+NdUyN7U8rXmW6eFPAwLR8zaexHmKuwqspLwx8Yd2PXMBmyfvAHfvbADhw6loVj0qXGKupc1UC0t300Ur/qEfW59s+2b577Ano1xSMpS8L6IVt6RmPBiLGQ9aHhQ/Xkyb6mXBIbCmzuvhsgEKjmytnDvaIV9iUjnrXg28B15q9+5RvyjEMiHVmRiPz6Rv66E8QlyFscpFObYLaQ6EHNki9ZcB9cu/IuayGVFsmQ67n00HHyYfLUC2dzE5De+wHcPs3rm4U3Y9cYeJCSXCCNL5s4Ie3QWIiZwO5rIQeLM5vXU9lmfCPXdviRk8+2PFB7DW6/vuiOlv1wCd3qNEaCmhMKXm2RekAH5CS5DO+rPzyKDFyyeCJiqZ/QJ1nEK5HU/E/O7W5nFHnBdjK9ugcKOFuPtfNaUyptVm5oblCE6iA53U7HyiECYB+tzl11G0pUywarbJYmG7J3XER7I2Qcqkf3lW7j6rTahyMT6Pz/DwGF2TOyWIPO1aUwUiy81MhWun65CX64LrMpD2ltPo0ST2wjXAdjwFB+PG1XncXau6ILSAuk/DyCKfR8yDyG5Lhb9fOVI/dcLUJxrWaYXrF/fhoEDuPOQI2XafL5CuoXZmzF4XggsmWAu/vl9XHrPiIvyjHkXESsGs84DO+/ls1CibZGYTsMZwZ/NwxDOV1BVhMSNO5G6T0utYiuD/7/nYGQgVwGXIPGVbUjVUXFrwnxKLCYsi+R9q0uPbMOBNzgXAD3psm4qgjWpwd2EG9o9Zi2461Qm7sKeF4QGSJubCof5Mvb+KazRV2Ugbt5+5OpwAzD0/U2Qm4ohvL0hE9P8ud/MH1FrNAyNGZmVb+RhWSSr6TK9EbS8K07ut8HrYQ9hlgerB+pLcfzMV53jsjJ8BCa8PBSczUBVcBKHnzuOUm1uKJGRiFkTCz+uqi8+iT0PHxdGngzCHE5r5mPSEE4eGl7fdV03FS6vwd1EgaT/foGCux/DhEgpcvd9grgPuJGg1uuIxnUT9HSr0/f9fk+U4Ld7y9jD5o435trhUzG/o2jfs2aD4LHTMcrXCqWXfsHBP+SgaPwdQwdbxiWwsxcGv6qqq7uwEGd91GUrESYKcfl7f2lFiHPkQfnaK7iUU4m8b9drEOJceQsRyI9FsfI+0iLEOap2IH/HeUGA24bA+T4+9xakrlyXnvVU6/zh0eca0lYv0iDEOfJQk8kFdmod+yGcEGftTE4cMo0pxDmCvQUrviIXVSYX4owFIxDJT06rRuoXO7QLcY4qBbL+vhvJBUVI+nxPm4Q4h3pfHH47Ighwp6io5hMeuzm5J+X8KJffkBiE8ZEJqpHzh37xDBstTpIgBN8S6aAlUvhGCta62tQkA4Q4YRhquHXyDaqo6fhB2fZRjRdSv8LWPCY9zJw6zULuPfsOXohzPsdxT7UixDmSkhD/QRIKCpJw+L9tEeIcapS+tAeJ/Pc4I3ianiNW3YISyM9zdTAXASoGgWFcfZMP+V795vKU7k7mJ6zr51bXsM6CEFGqNeE+0b1zY66271mrRvrhbdj85SbsIiHeoXRsjWjlzC2Ox6hFeUUXdlKxfQo+Y7z4i1Fx+nPk/6xFODfjGEqWTkLWl5pE+0K4xYjlJehR3o/nUcZfHgmkHpr8vOfARnSvsOwbAvy6DmXtjN3dSwxtU1eaa/ROktSLl+KsNitB58fWuJUmn+MzSNJnBn1VPpL+sgPJ32gcU9Cb2gMZwnLMdp5wjeKzegbbk4SY435RQienOBkX9vGv6KYqTfTlZMJjeJSWBYREGhfnqIb8iAmCl9+GFOZ1vFW8+1CNNWlfNwnygffhLcG21DHYhjPBKFz/3Lh47T7HN3MoDof/Egemx9tBg2hlVZW3b+vPZDej9usUPua4XVQUgthvp0o9iyx9DUQnEnGBH5a0YWJeywJCDTSss2BIRKliiw63ihPdhw4U45Zw8vLgH+z6sjydMclNypwR4DxpOL/X7M93CHnt4b5oePJWlDzkbdGnvGIoxa60tXuskGhGAKy5UUSGWe15XP289SlWFk7imxXXtIrhOoXQOZKG3g3Xu3RUNAbhBWvRil9V3BVW+/GFq9i/yU7sZJ/jxBIxepAVuyZ8ooeQA3l6k42k9EKaziHcm9HX4tSwOAcUl5Chr9gn2oWmydu3Oyr1dSFhIeXnEnUYd3vBjU+w5+vzzm0wa4tFw4O1tGdN5MxKgbzRz0/N2gD9I6NwUU+y4oUQibomcroODxI6MZnJ+ot99qxR7G+igQ4T4+YOPvCz54qvRUFhWeeKIAORRQTwF+L65TNQGMGtwjI8QKi0C+WGl6fWMIIwpmE1S6D8z72o0WExsfYQZnTXF+ZpFeM1235CAV/LeKHv3zZjyPbdCFzzJuzvbmUSqV7ENi6DX5UXJyRMia0zbK25hAKlhtTDRqEU5XwbZwNZAJ/RYyjdsg9xu+Pwx+6D+OMrA/zhOfSyODUszsG+6+w5zfMeCKPj4E4ztJoQQh0u8pWJoQ6/wVMaqmej4SETBJ2iBKWd7ZIlVwjPmMwZYmTqHgIT1F/sZ/UUV1ftR5KuSeYt2SKOAsIT/R4S2tVbCRJdYHRHlGqG03VMFJME0TFiXOqGwN5OfOG1BZdRYIjZrNOZ0xiar0xuHPFo7SH6dxekQbSp6E11oQb/7QYfbFSiNGEvn9JOU6jBqqJW1OfFtbj8xDqkXqpEHWt/LZhodR8UjYin3sSI3fEY+OlWeD65BJaGWnRtQ0UrfiVqMvVx9+lghjt1TONiK4Vs7ghEfTwP079bigf3L8fcltueWYgQByl6HKn5yP0oCVkfpbWhA6uHxalhcQ5wYcgMFPuEgTRFXOgs3BwMrRk7mV4yvBX2UKfGHJcxMd4h+HnC4//GIXbbY5j+g4Z6im0PPh0hRvjogfyRweoprq6SGzSCJ5CDC4k65v4sCBUm0eoTUYrxaV6Hjq/cQpd/1gge44txCxl8A31h24sLl5eDzMIurcQZAbASxWPVRWPEvG7y764plQsJnTS5odRrmIXT6INdK0f5r0JSOyGNlunqPB0TM4u/R9nKSTg9fRES3v8emX/KwS2YyvmQW7sHIOCehRi8+TACl80Q3q8P0c7CMvioQE2HByw2ESOjEPPlY5iyYCjC/JxhZW3OjThCXaNEbcPGGRjNhXxCAzdZnDSFDrMaGyQ0fNkpyOzw8F8dRDeKMw61cKfKnDun4Xa3FsbsFEXa12Xu/DjjN213LcC9XCSVrrD4Tzuwe3o6pn88C2NHh8PbSQor3geFW5ysqa7iqyoJ1VTaqP1K8DuHHWsTNbjVeUcJMdork5PEkL46aBh8kl1HZ4Tt1udZI0yPccW4pSP8g4Pgyn7z+qo8pMuLoOrY9T3bT8NiOowbRh6hVZbqGUO70Q0lDxXH+cRNNPlgX88So660RuP5VKImnU/oQRrqf1qHwpfmI3VuDBKWrsW5H0+jkB+3lMB94lPo88hg/p06CfQWxLgiV6c7TadwohTlfEIKiTFM5Fy88v+LgR/n+lJThNRvd+K7x4X4vd/M/AS7GrZ7ubwdSCL/Ci00WZxuncjpjIB+wpBwblJKl3Zx6ymkFPG+XIDrdSwQUh3I9cboLeWlHTM4axQ4Id5ZIQ0ZigKxsrC0MIrfNhevfOIkYUJmbW4K4t/bhG9mcfXShqZ6im3fcLHH/5tErmDayEpEeipXC2lwq7MNgW8g15HRP6IU0izFa62CXwyf6EC6ybNGGE+Mm1u7o29oHzg1CvF81HSHVrQLzFaxHNZHcEMplqPiliH/Jh/sMrkepuZgF0EMq3JRdZTPMZycvaj68BlkPv4+5PxMOwk8Yua0vkKoiNRdtOJzixMJKdNSVYIqvgcjhWtw+wdiZbOHCkOSlWk49PgOJG7Oh6q9gcBvUxotTi0nco4dgCBudEmVgfROnshmVKp/x5C4DxDS1u3k7+jIlbJvZkumODrhVIfwjg7h518Hzg2bKRnkpGpfl/mFFA3XpEO3z7CzSLzfGoR4ZSc2YkyM8+PI1p5wanf0JTcEj/MVLLZJe7B78S/IPlANdTe18JuahtWDb3GreyiCj9JiUESpeAtk83MPauDWj8/pOPR81gjTYwQxbg5r1z4IC/aBHSutrlyO1MxuIsQ5EkpEa7MdE5J8wmjYeM0RU61guwTugwQrYPnFuFsFbKMPtgo1ObrdaKS+rsKPWnZNtxVdF1wM9KOi37eVxDCXi5qKLhJXPgfF4ik0rsTWZmTwCBAEffGpYyjW5Wdr64WGwDZtxcyYwshcn+5UJ6LF4iQbFcD7r6oyL1Fs8c7iD4m4uFQVIqbziQ4jekqNEEVCZYXkTlqAVzc2eD38Iczilv42hRDn+CkPwhJZzgiapG2yoJ5EBcGbr3tKkPq1XPfoUohz+3zGjV23dLW6qnH14OYTOf0GCnHZDYsoJUEOX5YafcOUHRpRpWs+a4Qm2ifGLezhFdwfod6OsGQysjw3FalZpV3fNeVmqnIbwwq6DVkpJPSBCS3NxKGWtyYD9oGD+YV1tOMF6YqZ8OEEl0qOqzs0TM5s9MFm4vpPPtEqDYsDXS/NMnjyqCYaLd2sNjdIXNu56GVJ7wyyTwiTBeF6B4Y80eCU1BakkIij+TUK3YO6kkdD21bRZih4Kwxn3XK+m0+0i6pSMQyhu5uwoEgX4laLky+C+FmvSmQe6fTwN7cvWVZI4YcplIiI6kiBcAMPDqwQkjlSbBVSJqYLCHGOqhRk8p1TwGl4LPzD+GTbcGoIUVgNlc7HyAZBQ9q22I+x65auW1eVIP1EPp9qnMjpH4XAQC6Rj3SDIkr1wpYk0WcysBaPdthIlHGeNRvPcPTvH4n+wZ4dG9rzNqdtYryXYA0P79cXHtZmqFddQ1bqeVwurumG/p0bUZIqxKuyCL0bfjN0hPbznQPHtbsR9fHLEHVZC/KgSMkThKvrYPg+qq08L1guew/9+SX1VSj48QONUSnMQkUf7FomxnVGrWiaPFpZ0P4Y3xYzPkJfbgl+RnnKIb3cTupKxYffPQCyUCGpEa2dmQ5gy3Ek8TNrzOE3bT5inm6r1akIlWJHyyOk9djsVo9MxsQJQGpSUzxuvcnKgRD2V4rAuyPb7UmlPl8o+ChahyKsXZ2RDqClxWlKKHy5W64yA3J9FmgijAQTCImOQjKsAquHC0mjM7YKo325VkKK5BNWojXelDQX4olnvzONEBfJ/fqMsFCYxBcjX5+OoJF8tuE0zpXxgkdr8+9tZfBeNxeD1SlIb4PTuLHrlq5cVzWuHmwXiuAFrDWZKq6DkH0JcgMjSh3bbSPc+5IyTFrWQWPIRnrW/O8Yh1EjYzEq2FlrqGSi/Zg7OTmtFtN6YgmXwAgEuljDvJcaVUVZuJxTjJobZjAz07X1wo36rmc2v57LhPHoENiZSyAbNBp2A0NQU6OGuiQLNySDYRERDevpT8D7ib8i+MEY1mm3hoXUEXXVX6BCg+a9cYE1avcMgoPEHHZho2HTzwvVBTW4XpTHxHwspGMeg/ffn0FwpCNvPa5I+BBp7x4QPtwCq/ufhKeHOXD1LOQ/6gi9aDsT7vOCmHhXoejnlzUem/WKrfC7PxYWgYPQy8oaN1w8UJ8vTjxhx2YROBq2Dy6C15L/Q/CdXrxbR33paaS+/B7UeqjxG4XhsJocxJo4ezjddQ/qVGrUXLuAG9UhMBt0B6xin4THsmcROr0frv1woJM6bzUouVgJxzGBcDC3gEPfSIRP9mHtVC1qrqugrqjDDe7c/GxgFcR+20G+8BkfCplHDhQtJsFWBvgjIsQO5q5+cO9bhqLMUqgaGjFXG9hN7IeIv92HUSPcgLTfcarSFyG+UlTlpCLvqhJqvRq8alQEBqNfAHvGHAMQOMYeVazDW6vkPm8OSZQ9ZGNCERBtieIzehR4mXWQxkfC284MDqERcA+vQVlpFeq483Zg5xzqApf7+8NZw/k6TB6O3k6A8up5pMfp17Ew7DM1KPUWrqm1iwWUtgEI8LKEIvEXJOn5fZqxhfsD/cEFxFCkJuDKGTGb0EpOiiXumlwOL4kSAezeS9pnAX3jQelHPTa9mI9QO9YGFLvi7TUSJIuvmIZbhfjs8vbcc0bgag5ybHzQt58M5pYy+Nw1BP4xNlBJqqE0V7M2RKgxzSNkkLJ6xZ7VAx6TXWB2tKi5m0RdGXrdNRh+DmZwDg3EjV65KLlcI9RzDPNgN7jMjcaIlRMQ4VWPy7vjUR0WwZ6XauSnyKFoqBN10Y66RSNtLq8tz7uBn6m7huoBA9DXSwpnxxuo8QiDtwPT4of/hyxD65dySzgPUGKYhwq2TNH3OWuNg7rcHg3CWM+aM0IGR8KTXaPqnNM4e0VDuDfCKPQKDAw0UB1L4No3Ar5t6rQW4VJSjjgE38UY/yZCnoiGsx5myIqsY5B/sg5V51qJox39Ovo+GwvXVstTofDg+8j8QFsIwsFw/vhdhHgBVaffx7lXdKzmOf5dDHh6MKti8pC2fBZYX6IFC+G1fQn8DRgWq7p0CKkvvoI6A3x3pSt2o/8YZx0uOnlIfXwWyjozFHlYABPKdyPSm9UselD6xzYceK3l8KMN/N6dj5jg1suozYrHob8lwuxvCzFleHNvzOxd6xG/UdzRCvue99n3BLbyPaWJ2DMvXr/niYsCs3acMPlUC5rO1+/95ewYWGN1Ygf2vSJ4tOrC4M/YhmDYtonCRCieEiS+sg2pJ8TdVmHntZ+dl7inPzmIn7yrC1hmuxbRi8qwaWYJpDBnv58Ppq2xMNo1WvxSIZ4fzt2tNkjc6IkHfhDyTUms61S8388JKUldQIjfhGRmLGIeioSH5uHXFiiQ9MYXSD4i7jbAnvmRr4+Df6tlKJF94FvEv2eOiB1zENmsqtLzGWlj3aKVNpXn1nj8+tWvHG34zPARmPTy0KZ446oMxM3b37a5Lf5KHHznKvpy51nqjjcet8OnRpojY7xnzROj5s1Cf6YZ8k98gl1nyTbeURhhAmcP4efnkPbEOqQkyFGmUDXzj75eq0J5ThrkP36B04tikLz8udaFOMexF3BJLK+89iZ/a7UKytI8ZP/+PRIXjW1FiHPcYdhqlg1hBbW5tHgpoUyXo7iUHQM7J00+5XX8ucqF41s6C+dWGibEOZRvP46zn8ThaqGwoFAD9SoVqgrl4nXsZCHOkSpH8uJP8M3b+5GYmI9SMcZuM9RCDN7SbO46aZqyWo3sZzZhz7dJyC5VQnVTAWoV+1xWEuLfZpXWk4mobFfFyr7nKc3fwx+jogjZF/L0n6SbmoL4xTsQfyKHnbe62Xlzx60oyEF2hpFaAkOpSkN68k1CKDsF6XoJccLYHNvsiHUnOD8hNWTDc7HztTpMa69Pq209Vr+VL4oDTuS7YkUXEOIcccV7MfvoV11KiHOovovD4Yc/wb4tJ5GaXcLqpFtqKv65ra0pQW56vuYOOXvm/3hc8zOvYp/LPvEL9j3+CRPihvg7a8DYdUtXrqsaVw8W4GKLt3mSeZYUize4C245Tkw8b6jA85H8K23H6M+aM5z451+N6goS4h1JGyzjBEEQxsYZYV/OQ5SrGhnbNyDB0GWrCSNyA2+8k48Hg8WuXo09khNkOLhPgt3JvfS2lI+Ouo7RE6pwX0wZZOacpGLiIMkbK563xG/CWwii+9E4kmfICJ52Ri8pw4b7udEoDmsUJctw4LA1Dh4xwzE9hX6HPWvOMZj3QBRkrMtw9tsv8Ec7+22EdkiMEwRhcsyXTMf9030hUSRh35w4wVpEmJQFS8uxctI11riLGQ0o3PHGXDt8Ku42R42t27MQ3dwzi2Xb4tJ+Nyz+yIxcg4hujexlwfVQlfkLfnjKOIuShcfW4O0nitBX1nK82hbH3vLA/MPibjM64VnzHYdFk8NZRyEHv32yCxfEbML4kJsKQRCmxT8Ew6dwC5Sokf3LcRLiXYQtGxwQtSgAH+xzx6UCWyhVBgYrVVlDUeCCY9/5Y/5cD0wkIU50d8bGYCQ/B0iB1O+NtzpwSpw1Js7tjec3euFYugyKGgNXxOioZ81OJljsK0rEGPhER0GWcYIgTIetJ4Lfn4YhXEiD3Hh8tzhRiAlPEATRlQgLwbA1ExFkx61qugt7Vum5/H03xnXkQszqzzofuXH4cG+SmEt0BGQZJwjCNEQGIerDWYIQV+Ug/r8kxAmC6HqYxw5FzOuCEEdpEuJe7flCnENmI8zeri4r5P8THQdZxgmC6By4OO4B7nCO8IT38AgEetiAd0dWlyDpvW20XDNBEF0C82AZLIPc4NHPF35DIuDnJE6cqJEj/oU9yE4Vdns6/SYvx2hfCmvYGZAYJwiiU5CteRRThjRfoEBdmob4fx9ELo2AEgTRRfD/cDlG+os7IrXZJ/HbC8dRatTFeboybhg1dw7626uR+fMGHMwUs4kOgcQ4QRCdAheFYFKkFHW1pSiQZyPjt0QUHCJrC0EQXQtu4bJhXkp+PYcCeQbk+5JRfMpY0zUJ4lZIjBMEQRAEQRCEiaAJnARBEARBEARhIkiMEwRBEARBEISJIDFOEARBEARBECaCxDhBEARBEARBmAgS4wRBEARBEARhIkiMEwRBEARBEISJIDFOEARBEARBECaCxDhBEARBEARBmAgS4wRBEARBEARhIkiMEwRBEARBEISJoOXwCYIgCM241mPlg9WYOKQKfk5KSCXXAYU73phrh0/FtzRHja3bsxAtY0mVNRSlNkiOt8MHX5vjWJXwDoIguiFUF3QoZBknCIIgbmHB0nIkbpZj2ZRC9PWoEhpfQ5DUQOZxDdEzs1ijXICDT9TDT3yJIIjuA9UFHQ9ZxgnCZLghYsccRHKWA43kIH7yLmSLezoZG4spf4uE1uIyf8H2p1LEHYLQgm093n69ANOCa4T9GnskJ8hwcJ8Eu5N76X0/Rkdcx8Qp1Zg0rBRu1mqWYw5FqidWPCvFb8JbiNsVY9dVS6Zj7nRfcedWFCd2YN8rReIeoTdUF3Qa7RPjvcxhZe8MJ0cHONnYwEJiLpra61GnVKKmrAC510pRa2AniugZWK/YCk/W/b2e/j2yP/xezCWa6Ppi3O/95YgJFHeQj4QndyIjS9xtyfARmPTyUDiJu53bAJrDbu5QBI8OQoCHM6wkYjbUqFWUoODsSZzZmIHaYjGb0MINvLE+Dw8G1rK0FYpOuGHVGsv2NZisQX/++WtYHFXBdlgjfMIH09ZY6H9fdzDhZuZIqecEAtFpdHkx3qJurknBoZm/QGv1sWAyZs4NQkO1k71rPeI3ijudhPnIAARMGYqwSE/IzLkcA9uPW7j96gJT0mYxLpH5oE9vd1jrcnS5ocK1K2nILq8TM4jbgxnw/GIlApgyK/v9FaT+95CYT+iksaFqb2UqIHt5IaYMZ61Ku8U4UPzbFzj0H4W41xyn1x/FpCgbca/zxLhkZixiHoqEh7WYoQ11CZI+2oHkfSS8tDF6SRk23F8CKWt8sw94YsF6M6M1lItfKsTzwytZygrJW70xbbuQb0pine/BWxGuyEj6DrPLq8VcwlS0p67SREP91W4xzjr1GVs2IEHjPSuF/8ePYeRNfhedJcbNgz3h/RAT4BEBcLUTMxtpX/txu9UFpqYNPuPmsPOOQFiAKMTra3AtNwMXU5OQdC4Rfyax7XwSUjOvolxVz+S+BC7+feFhJXyauF0IgbVoIq3JJiHe3VFVVkPF/rv2D2fVpyZ8ERDMCXElVNwbOwnZ/83BvY+KQlytQPaJOBx6YxO+mbUe2yevxzfP7cChQ3Io+JFRZ0Qum4+IsfxHiZbYKrFyMtf4sl8x0xmrjdj4cny6xg0HczmTXS0iplVisZBtUoLsXSEzkyFq4Ex87dDUkSSIBipZ3cfpHr+hIUJGS/zDEcAL8c6t+4BwRL87CzHDm4S4qjQHSSdy2BPWTm7DusDUGC7GzW3gKLNgH6xHTXEGUpJTkV2sQI1KjfoGG3u9GrWVhbicnoli3iBuBQ8Xe/4l4jbhTi8ITVsJqi7yCaIbU5t8BpmcIcM1FEGaxOz0UARwDUJxEpJzhKwOx5t1AAa68UPDiuSD2DXnC8S/koTiI9VQi7P11clFKH57D/Y99wuy+YZShsjZUaxpJVoSvbAKEfw4uwN++8CqA3w5e2Hpp67g7ZOyckybz2ealM1ZX+HtLAU7NEGQf2lHdwbRnNL4M8hl/yVhEfCzFfJuxvy+vvBm/1WpSUhvtwo2nNoCOZL27cGuh9fju3m7kHykhDectIfbsS4wNYaLcXUFctIvITPzPC7mKqBqzcmFvbcgn/MNYl9kbdXoT0XcBgS7gK+3VMVQ/snnEN2aHGQkc+4pMgSOu9U302NUKG8xzz2ViE6LWpWbg6THdiLum21MbKehtrUvTk3BsX05QiPl1xcB/nwu0Ug9Fg8pE5KpdngjVUganRM2OJbDCV4lIobXdoGICmp8KP8Om3MEQT7ijodIkBPNqUlkeodL+CLwEc5WfDOsPozyZP+VyDySwe6mzuQijjEBvusve5D8gdyI82Fu17rAtLTBTYWhroKiUr/brq7OBF1FwuRYerkKN1fZNYjzsIlujuLARZSy/3bBoY2TNHlsQ+AfyFWq+ZD/TynkdRZV+cj9vETcaR31VxdRwKc84TGOTxAN+CsR5MElpEg+JTXqkHRzemHdKQchGViLpRosjZ1PNdZmtBDkXeK4iK5C9okMviPvHRnefFRteLjw3FRmQL5LyOo81FB3xIT027ouMB0dHtrQ0qkvIvzsgQo5zl0u7eSeYzvwnQPZI1PhHeYNO5kEFmJ2vUqFisI0FO3/DsV79fWF9oLZ+IVwnzwSbr7OsLYSe0FqFaquyZH3w3Y9ylqFPrunwqP2PM4++IQgcF2nwv7ROfAZ4A0ZO0auzHpWZkXOOVz9ai0Ux/K4d+nGdjAsx0+FS3QwHH29YW0rgbSFceh6rYr9diqU/foJLreIjGL/ZjwiQsUdA6m/tBcJK9eKe52D1bRIBI0LRwD7LWTWTSeqqilBcWoaknedQfGp1u9U86dn4cFJnEXkZtSorSlHSWYOMn86juxDbRSmXXACpzABSongzxZiiIcSqRs/QWJD49MQSUAsX9ukKe91SxEbxq538Unsevi4/n6NjZEK8tm9shMZbbbUNE3Kam0i6m3JojJkzOQ6Nc74ZoojnhdyOwb/Gvy2IQ9+sEbiRi888IOYb3Js8FLIbMz3sgFuKHD89BY83JMWJ7GVwemRKPQb0hcerjawaqj61FzEoSLIT53EhS26LKxSBH36GIZxfhk3o1ayMkqRnZaMtM0pULSx0uqKEziFyZhBGPbDZARJmkeUsnp+HqaPchbLR4vPCO/hnqmwL+chypVzZTmI71amifm6aSgflSk49JdfUKzP/dje9qM71QU2IRh/30QEM4mpuHQQuw6nsa5196RtlnF9MbeHhyfnK16P0pLy7iHEbSfA9p87EbXhKYQPC4DjTUKcw0wigYNvf/R97GVErXsZFrp6c65MhH+8DUOenoqAvs6wbRDiHOYS2LqH8GUNeHNls++5hQYfbJWSXU1G9OsI3LAKEXcKx9hQphkr08F/MMKf/wye473EXG2EQPrkVkRsfReDH52AgHChrJZCnMPCiuVb2bHvPybmNDCDnYOYbAOK3NNiqhMIC0DUl8sx/YlYRAa7NRPiHBJrZ3hHjcCENUsx6fWAVt2qnLyb2YZFzGHFlRERiZgVj2H6p7FwDRNf6hEokHkqn/2XInBUkJDF0v4xnFBWI+NE641n7i8XwbmdwzUC/abwWXrhN1wMGZZ9CXIjDZlKrFsON3cANnfhVOwypLV1G3oXFolFdTSLfcWOY4EELZ9wo5MlAWeEBmrg6qfdFvR6uIZr0qHbXwQhzsFZyAcv6DEWcsnMcZi0YyEmTYmEv8dNQpzDnNVbTp4Im3Avpn/GROPM1iaysnpTY9Un5csIHj4OUz5+DGNfbr3+7H5kID2Zk3meCJzN1DaPL/pFMaGMEmQcaE3olyD9BFdvcn7nA+Gvt4ucG4IGcuUzLZ5+UT8hbgS6Yl2gjcCR43khziHrG41BwuXqlnScGDe3hkdAIFwtmRSvykVeOS8huza2c+C5ngnjYV5MYgDK4jRkbtuIU6uewfFps5Cw6hWc3XYMV4tVvCCW9p2Agauf4j+qkdBV6LNhCQK9OLGsQlnKMSS//wpOLZ2F40tfQOKmOOSJxjnb0BkIWBYt7GgizAX8PVdViTqu3Gdj4W5ZicKEvTj70nPs+BYh4aV1SE4ogRBE0g69ZzzWyg88GNZr3sPAewJgzyrm+qoS5CXEIWXTOpx66RUkLIphZbJtJTtetp+4aS9S9+5F/umW1vbvkb9QfG/jtld0B1Ahe1PL15pvnRbyMCwcMWvvRZirsKvISsIfG3dg1zMbsH3yBnz3Ahd1Iw3Fok+NU9S9rEFpafluonjVJ3y0jpu3b577Ans2xiEpS8F3PK28IzHhxVjIetDwm/rzZN7SIgkMhTd3Xg2RBFRyZG3h3tEK+xKRzlvdbOA7UntM4Gb4RyGQD63IxH58Yjs79OaNQ8zlBYZYyXo+Qc7iOIXCHLuFVAdijmzR+urg2oVNND3EZUWyZDrufTQcTtzN3xhx6At89zCrtx7ehF1v7EFCcokwUmXujLBHZyFiArejiRwkzmxe722f9YlQf+5LQjbfnknhMbz1+rM7UvrLJXCn1xhRakoofLlJ6wUZkJ/gMrSj/vwsMvgJK54ImKqnIYB1nAJ53c/E/O7OmhXfveoCperm0efruN6NI2gb302llyWsHdzR25cLfVgPVfkVXLpS2vpEzy5BNGTvvI7wQK4/X4nsL9/C1W+1CUUm1v/5GQYOs2NitwSZr01jolh8qZGpcP10FfpyVmNVHtLeeholmtxGuA7Ahqf4eNyoOo+zc0UXlBZI/3kAUez7kHkIyXWx6OcrR+q/XoDiXMsyvWD9+jYMHMCdhxwp0+bzFcgtzN6MwfNCYMkEc/HP7+PSe0ZclGfMu4hYMZh1Hth5L5+FEm2LxHQazgj+bB6GcH5wqiIkbtyJVG2xpm1l8P/3HIwM5CrMEiS+sg2pOipaTZhPicWEZZG8b3XpkW048IZ+fs08XdZNRRCwDe4m3FDsMWvBXacycRf2vCA0GK0NDZsvY++fwhppVQbi5u1Hrg5rj6HvbxUm7GM/jIE3WrjZEHh7Qyam+XO/mT+i1jQfMeoIVr6Rh2WRrKbL9EbQcs3BMk2LDV4PewizPFg9UF+K42e+6p4uK8NHYMLLQ8HZIFQFJ3H4ueMo1eaGEhmJmDWx8OOajuKT2PPwcWEkyyDM4bRmPiYN4VSk4fVn13VT4fIa3E0USPrvFyi4+zFMiJQid98niPuAE4WaPtNE4zoMerrpGfr+RtrZfnSrusDME8OmTkF/x1rkn/oR+1MMaGe7GO23jPcyg7mFFWwd3eAd0A8D+vdHaG9XSFSlyM28gJSs7iDEAYtlKxEmCnH5e39pRYhz5EH52iu4lFOJvG/XaxDiXHkLEci7b7DyPtIixDmqdiB/x3lBgNuGwPk+PvcWpGIgUWWdPzz6XEPa6kUahDhHHmoyuUBMrWM/hBPirJ3JiUOmMYU4R7C3YMVX5KLK5EKcsWAEIvkJKdVI/WKHdiHOUaVA1t93I7mgCEmf72mTEOdQ74vDb0eEisEpKqr5hMduTu5JOT+ZyW9IDML4SALVyPlDP8tNo4VIEoTgWyITtEQK30jBulabmtQ+Ic5xdwAfggwoQvFPfILgUcOtk29QRU3HDcoah2q8kPoVtuZVs1bSqdtayL1n38ELcc7nOO6pVoQ4R1IS4j9IQkFBEg7/ty1CnEON0pf2IJH/HmcET9NzBKxbUAL5ea5O5yJKxSAwjKu/8iHfq9/coNLdyfwEeP3c9BrWbRAiVOktxNtNN6sL6vORsHsTNn+5rVsLcY5214h2XgMwILwfgnv7wl1mBfNetbh29TIuya+gsJIfl+n62D4FnzFe/MWoOP058n/WIpybcQwlSych60tNon0h3GLE8hL0KO/H8yjjL5UEUg9Nft5zYCO6V1j2DQF+XYeydsbu7sUpcUZdaa7gg25EpF6iE1dpCfSrpjqWJp/jM0jSxxpalY+kv+xA8jcaxxT0pvZAhrB8sp0nXKP4rJ7B9iQh5rhflNDJKU7GhX38K7qpShN9L5lQGB6lZQEhkcbFNKohP9LeYVobBA0XhUG2vP3CvodSmNfxlrDuQzXWpH3dJMgH3oe3+Iqkm2AbzgSj8HvmxsXr53N8KA6H/xIHpsfbQYNoZVWft2/rz3g3o/brFD7muF1UFILYvaBKPYssfQ1OJxJxgTdT2zAxr2UBoQYa1m0wRYQqEaoLOpd2i/EaRR6Ki4tQXFYBlVIF9Q0ruPgEITRsICLDQ+At6wa115wR8OAOUyVH9uc7hLz2cF80PHkrSh7ytuhTXjGUYtfX2j1WSDQjANbcqB/DrPY8rn7e+rQKCyfxzYprWsVwnULoKElD74brXToqBoPwgrVoxa8q7gqr/fjCVezfZCe21+fYQBJLxJjbVuya8IkeQg7k6U1z1ksvpBlkudHXQtSwmAYUl5Chr9jXxtzRGMQXVo3UA518H3QjNE3evt1Rqa8LCQspP5eo23C3F9z4BHteP+9cQVdbLBoyrKU9ayJnVgrkjX4fatam6B8ZhYunnRUvhEjUNZHTdXiQ0InJTNZf7BsZqgs6l3aLcXVlIXJyc5Bz5RJSLibj3LlEJF28hNwy1jxb2MI9oB/Cve0bJ051RWQRAfyFuH75DBRGuPEtwwOESrtQbnh5ag2jCWMaVrMEyv/cixodFg5rD2FKcX1hnlYxXrPtJxTwtYIX+v5tM4Zs343ANW/C/u5WJpHqRWzjMvhVeXFCwpTYOsOWWyodCpQaUm8ahVKU822SDWQBfEaPoXTLPsTtjsMfuw/ij68MHB7Uy0LUsJgG+66z5zTPe9AXW19ETRdHR3LPIJl8xbXi4E7dlCaEUIeLfGViqMNv8JSG6rnL4iETBJ2iBKWdPRIkVwjPrMwZYiTpHgIT1F/sZ/UeV/ftR5KuSest2SKOKsIT/R7SFvojSHSB0R2hqiOhuqBzabcY10S9sgKFVy4gOT0PVTfMIHENRKBrV+0fz2kMzVcmN454tPYQ/bsL0iDaVPSmulCD/3aDDzYqUZqwl09ppynUYFVRK+rz4lpcfmIdUi9Voo49cxZMtLoPikbEU29ixO54DPx0KzyfXAJLQy26tqGiFb8SNZn6uPt0MMOdOqYxsJVCNncEoj6eh+nfLcWD+5djbsttzyxEiIMUPY7UfOR+lISsj9La0IHVw0LUsJgGuLBh7fEFtIHfvycjTBzyTfhvIv+9xM00RTToLNwcDK0ZO5leMrwV9lC3jjkuY2K8Q/DzhMf/jUPstscw/QcN9R7bHnw6gnWneyh/ZLB6j6v75G3w5c7BhUShPtM6l2hBqDCJVp8IVUaH6gJT0SFivAF1TT4yr5Sinn2NrZc3HDr029pKAKxE8Vh10Rgxr5v8u2tK5UJCJ01uKPUaZs00+mDXylH+q5DUTkijZbo6T8fEzOLvUbZyEk5PX4SE979H5p9ylLEGh/Mht3YPQMA9CzF482EELpshvF8fop2FZfBRgZoOD1JqIkZGIebLxzBlwVCE+TnDyloImaeuUaK2YeOMCuZNofSIFtxkIdIU6stqbJDQUGWnIDORz2oDXGSHWYjhI+Mokb1rXzsWDGoD3SjOONTCnSpz7pyG0d1aGLNTFImTVzTQ+XHGb9ruWoB7uUgqPXHxn3Zg9/R0TP94FsaODoe3kxRWvI2NW+ysqe7jqz4J1XzaqP1K8DuHHWtjNbjpeUcJMdork5PEEMGdTBesC24HOlweq8uLUMz9pr0cYN/ga9GVaFhMh3HDyKMyylI9Y2g3uqHkoeI4n7iJJh/s61li1JXWaDyfStSk8wk9SEP9T+tQ+NJ8pM6NQcLStTj342kU8uOMErhPfAp9HhnMv1Mngd6CGFfk6nSn6RROlKKcT0ghMYaJnItX/n8x8ONcX2qKkPrtTnz3uBBv95uZn2BXw3Yvl7cDSe3yr+jJNFmIbp3I6YyAfsIQbm5SShv9u23gurYhxJoSuQe+RfzGJj93ojkpRbwvF+B6HQuEVAdyvTFiQ3lpl7TQCHBCvLuGNGQoCsTKx9LCKH7bXLzyiZOECZm1uSmIf28TvpnF1XMbmuo9tn3DxR7/b1L7XMt6MlmJSE/lajUNbnq2IfAN5MSw/hGqjA3VBaahE86+Dip+XLiLXugu4D1jOayP4IZSLEfFLUP+TT7YZXI9TM3BLoIYVuWi6iifYzg5e1H14TPIfPx9yPmZdhJ4xMxpfYVQEam7aMXnFicSUqalqgRVfA9GCtfg9g+cymYPFYYQK9Nw6PEdSNycD1V7A4HfpjRaiFpO5Bw7AEHc6JIqA+ltmXhm64ygD+djAhfwVxTice+1x9WljVT/jiFxHyCkrdvJ37FZLKqj2ZIpjk441SG8o0P4+deBc8NmPxRyUnvxWZp4IUXDNenQ7TPsLBLvtwYhXmlkC01nwsQ470Zh7QmndkdzckPwOF/BYpu0B7sX/4LsA9VQ04hBm2hYjfgWN72HIvgoLQZFqDIyXbEuuB3oBIVsCUkXELxaSSgRrc12TEjyCaNh4zVHTLWC7RK4i2u4ll+Mu1XANvpgq1CTo9uNRurrKvyoZdd0W9F1wcVAPyr6fVtJDHO5qKkwesjEtpGDYvEUGldOazMyeAQIgr741DEU6/Kts/VCQ2CbtmJmzMrQXJ/uVCeixUIkGxXA+5uqMi8ZHoJwZCRGfjYPw/y5BqUaGdu3mkaIdzf+kIiLg1QhYjqf6DCip9SAj1ipskJyJy3AqxsbvB7+EGa5ia4p3V2Ic/yUB2GZG9Y5ndTOdcKjguDN12UlSP1arnu0KsS5fT7jRq6rzMy7mNtM42rEzSdy+g0Uwq8aGqHKqNz2dYFp6HgxbusIF/65qkJtV5w5VZXbGFbQbchKIaEPTGhpJg61vDUZsA8czC+sox0vSFfMhA8nuFRyXN2hYXJmow82E9d/8olWaVgc6HpplsGTRzXRaOlmta9B4trORS9LemeQfUKYLAjXOzDkifb4SkkhEUfwahS6B2Elj4YKFY2hZCh4qwlnjXK+m0+0i6pS0T3D3U1YAKQLcauFyBdB/KxXJTKPGBL+xhxOz8/B9H/Gwp97BCrl+OO1TUjYQq4pepFlhRR+mEKJiChl2+5bvbiBBwdWCMkcKbYKKRPTA4U4R1UKMvnOLuA0nD0XYXyybTg1hCishkrnY2mDoCFtW+zH2HVVTaUw0mHn7dXF5u+UIP1EPp9qnMjpH4XAQC6Rj3RDI1QZk25WFzgFRKJ/f7b5tdPyZWI6VoxLXdCntzv/ENRXFKG8S4Yx2IiSVOHALELvht8MHaH9fOfAce1uRH38MkRd1oI8KFLyBOHqOhi+j2orzwuWy95Df35JfRUKfvxAY1QKs1DRB7uWiXGdUSuaJo9WFrQ/xrfFjI/Ql1uCn1Geckgvt5O6UvHhcg+ALFRIakRrZ6YD2HIcSfxMGHP4TZuPmKfbaiUqQqXY0fIIaT02u9UjkzFxApCa1AYxmJUDIUyvFIF3R7bbk0p9vlDw37QORVi7OiMdQEsL0ZRQ+PJiOgNyPUMQmsdGYtiOpZg0yo0f+ShN3I9df9mDrD+E1wl96IUtiY5CMqwCq4cLSaMztgqjfTmBKEXyCSuDl+o2Ps2FeOLZ73qGEBfJ/fqMsPCYxBcjX5+OoJF8tuE0zr3xgkdr8/ltZfBeNxeD1SlIb4PTuLHrquIMcQl870hEsPq4K9G4GrFdKIIXsHpsqriuQvYlyA2OUGVMulNd4Ib+0bEYNTIWA/1E95puirmTk9NqMa03tq4BcLXphRvqOtTX32D9m5voZQ6JtT2cPPugr58rrDklXleEjMxC1HbRZfGv5zJhPDoEduYSyAaNht3AENTUqKEuycINyWBYRETDevoT8H7irwh+MIZ12q1hIXVEXfUXqNCgeW9cYDfyPYPgIDGHXdho2PTzQnVBDa4X5TExHwvpmMfg/fdnEBzpyFuPKxI+RNq7B4QPt8Dq/ifh6cEu4tWzkP+oI/Si7Uy4zwti4l2Fop9f1nhs1iu2wu/+WFgEDkIvK2vccPFAfb44UYQdm0XgaNg+uAheS/4PwXd68eKmvvQ0Ul9+D+zn1smNwnBYTQ5iTRy7B+66B3UqNWquXcCN6hCYDboDVrFPwmPZswid3g/XfjjQxsl5hlKDkouVcBwTCAdzCzj0jUT4ZB/WrtSi5roK6oo63ODOzc8GVkHstx3kC5/xoZB55EDRYhJsZYA/IkLsYO7qB/e+ZSjKLIWqodFxtYHdxH6I+Nt9GDXCDUj7HacqfRHiK0VVTiryriqh1quBqkZFYDD6BVjD3DEAgWPsUaW6hlol93n2fEXZQzYmFAHRlig+o0eBl1kHaXwkvO3M4BAaAffwGpSVVqGOO28Hds6hLnC5vz+cNZyvw+Th6O0EKK+eR3qcfh0Lwz5Tg1Jv4Zpau1hAaRuAAC9LKBJ/QZI+3/fIvZj1+CC4cPWwqghJW35AYnwluAwLr9Y3M0t9f4/bg5wUS9w1uRxeEiUC2L2XtM8C+saD0o96bHoxH6F2rCEodsXbayRIFl8xDbcK8dnlbeg8d2Wu5iDHxgd9+8lgbimDz11D4B9jA5WkGkpzNWuThBrYPEIGKaun7Fm94jHZBWZHi5q7SdSVodddg+HnYAbn0EDc6JWLkss1Qr3JMA92g8vcaIxYOQERXvW4vDse1WER8JBWIz9FDkVDHauLdtRVGrlYB5v7g+FsLoX7sH6w8SxHObc4YT4rj6vvB/rAfWYf2CjzuYWXb8IW7g/0Z8cPKFITcOWMmN0qBn6m7hqqBwxAX1YXOTveQI1HGLwdmBY//D9k6fV9WugTgJCRHkziKnBlW2qbJtJ2n7rAF/1H9IVjL1ZM2q+4KPa9uiO9AgMDDZTIErj2jYCvnp3Wei684eU8VHb1UJLj30TIE9Fw1sMMWZF1DPJP1qHqXCtxtKNfR99nY9F6eHUVCg++j8wPtIUgHAznj99FiBdQdfp9nHtFx2qe49/FgKcHsyohD2nLZ4H1JVqwEF7bl8DfAD/kqkuHkPriK6gzwHdXumI3+o9x1uGik4fUx2ehrDNDkYcFMKF8NyK99etBl/6xDQdeazlcaAO/d+cjJrj1Mmqz4nHob4kw+9tCTBnefPgse9d6xG8Ud7TCvud99j18WD4tlCZiz7x40aVFB1wUmLXjhMmnWtB0vn7vL2fHwBqXEzuw7xX9ajqDP2MbgmHbJgoTl3hKkPjKNqSeEHdbY8l0zJ3etiFxQ87pdiF6URk2zSxhDbk5uz4+mLbGwmjW68UvFeL54dzdaoPEjZ544Ach35TEuk7F+/2ckJLUA4X4TUhmxiLmoUh4aB7ObYECSW98geQj4m4DrA4Z+fo4+LdahhLZXOSi98wRsWMO+DnUjeQgfvIu3fdTG+sqrUyIxaQVkZpjeotkfbsefzSbLe3WePz61dccbfjM8BGY9PLQpmNTZSBu3n795sq0te7L/AXbn9K9mFC3qAvMIjFtcSx82H13Yf8n+M00AWiMQhvcVK5DkS9HTuE1KGpUUF1v4UlcXweVsgKlhTm4dPEsktK7gRDn+Pk5pD2xDikJcpQpVM38o6/XqlCekwb5j1/g9KIYJC9/rnUhznHsBVwSyyuv5fqBImoVlKV5yP79eyQuGtuKEOe4w7DVLBvCCmpzafFSQpkuR3EpOwZ2Tpp+ljr+XOXC8S2dhXMrDRPiHMq3H8fZT+JwtVBYUKiBepUKVYVy8Tp2shDnSJUjefEn+Obt/UhMzEepGBO3GWohZm5pNnedNHkZViP7mU3Y820SskuVUN1UgFrFPpeVhPi3P8GuJxNR2a5IA+x7ntL8PfwxKoqQfSFP/0m6qSmIX7wD8Sdy2Hmrm503d9yKghxkZ7TrgNtOVRrSk28SQtkpSNdHiBNG59hmR6w7wfkJqSEbnoudr9VhmgGdd43Y1mP1W/li48s17K5Y0QWEOEdc8V7MPvpVjxbiHKrv4nD44U+wb8tJpGaXsDrulpqPrwdqa0qQm56vuYPP6pA/Htdch6jY57JP/IJ9j3/ChHg7/Z2NXVcdisOBVbuQkFzENEvz8+bWhijNTsNV45p99adxNWIBLra4wZPWO4huURe4OIkLIlahWvCj6ra0wTJOEARhbJwR9uU8RLmqkbF9AxI6feU5ookbeOOdfDwYLHb1auyRnCDDwX0S7E7upbd1bHTUdYyeUIX7YsogM+dEEGt8k7yx4nlL/Ca8hSCIxpFBA0YEO40uXhcE34snxwQA9XL8/Oke6L20SheExDhBECbHfMl03D/dFxJFEvbNiWuTnyNhXBYsLcfKSddY4ylmNKBwxxtz7fCpuNscNbZuz0J0y8AGaltc2u+GxR+ZGW2omyB6ArKXBVdGVeYv+OGpti5y1rF01bpAOnAWFg33BCqSsHN7nDBZuZvSCXHGCYIgWsE/BMOncAuKqJH9y3ES4l2ELRscELUoAB/sc8elAlsoVQYGK1VZQ1HggmPf+WP+XA9MJCFOEM0ZG4OR/JwiBVK/75pCnKOr1gX2tuLkRW6ldyHVbSHLOEEQpsPWE8HvT8MQLgRBbjy+W5woxIQnCILoyYSFYNiaiQiyAyqTdmHPqm48+9BE9Ju8HKN9geqUnfgivlk4nG4HWcYJgjANkUGI+nCWIMRVOYj/LwlxgiB6PuaxQxHzuiDEUZqEuFdJiBuODPaiYby0pHsLcQ6yjBME0TlwcX0D3OEc4Qnv4REI9LAB74KoLkHSe9tu++WQCYLomZgHy2AZ5AaPfr7wGxIBPyfR+bpGjvgX9iA7VdglDMENo+bOQX/77h/WkIPEOEEQnYJszaOYMqT5AgXq0jTE//sgcpPEDIIgiB6G/4fLMdJf3BGpzT6J3144jtLu7uxsMsIx7bFx8EEJTm/fhgRx8e/uColxgiA6BS5qwKRIKepqS1Egz0bGb4koOKQUXyUIguiZcAuhDfNS8utDFMgzIN+XjOJTXXW6JmEKSIwTBEEQBEEQhImgCZwEQRAEQRAEYSJIjBMEQRAEQRCEibit3VRsbWzFFEEQBEEQBEF0PmQZJwiCIAiCIAgTQWKcIAiCIAiCIEwEiXGCIAiCIAiCMBEkxgmCIAiCIAjCRJAYJwiCIAiCIAgTQWKcIAiCIAiCIEwEiXGCIAiCIAiCMBEUZ5wgiC7FsDE1WBhThkEhtbC3quTzMvcOwP1f8EmC6DBszcdiks+duMszFO62lpCYs8yCvZh5bovwhltYgP+On4o+XFJVh7KKiziduRdflSeijH/dQBYWImlqAUtIoay1QXGaA/bvtcf6ROFlgiB6JmQZJwiiS+DTX4lP11/Gp0svYVRkcaMQJ4gOp1d/zOyzHp+OfhwPhfSHr0wU4oYgsYSjS3+MG7oKm+5ajxccQ8QX2oISUqtS+ETKseQfF3ByfRmebU9xBEF0acgyTnQhFmLDwWcxxE7cvYVM7L7zfrwm7nV/XBCy+T6EycTdW8jDyQd+ZH97PmF3l2HDomy48gJIgoorHjjyqx32HbPAkWv8W7ofj9yDaVO9xJ1bqTj1P/y6Vv+T8/rvIgwNEHduoQKp63ciLU7cJfTHbCJeGLIIdzQ8h1VXcebyYfxSHI/j1/W1bzuij00MxnmMxV19fGDLm7nqUHhxM/6WfRhV/HsMwOUG5kRXYfyYaxjWWyHk1bngyEZvLPtV2CW6F7Yzvkbv3uLOLVQhf/silHKDInpi7PII09KxYvzu1fhoGrtbFEl4+x/v4KKY3VUgMd7VIDHenNtDjPuMKcM3S7Nhz+1UeWD/BnesSuBf6t50dTEeG40xy/sJ152hPP8jDq7Wfrd5/Gshhoc0mIs7+d7s7wXfqQPQJ8QdDjJJ45BufZ0KFYVyZPyQgJxfVWKuAfQaixeGPY47uItwowqXkz/Cy/kJhovnmzGLwdL+T2CcuyXbqcPlpDX4W2Ga8FobCIupwNuP58DH6jorzgPfr3bH6rYXR5iILi/GPVYhYG4UrMXduuQtuHRor7jXEltYT/0YAX25e5zjMq68s6p9z81tTtvFuO9sPD6jH2xQhITNH+CophFlEuOEMZj9KX55ehgTDT1NjGuhUSTdBmLcVoVP38nAMEcmNMp88cWbTnirhwuNBlFtqBjXTAiGfhsDLyOIcdTJ8cfcwygWd5vRuz+GrxsGD3G308S4rSN8X5qAQUH2On0qlRnH8NuaC1DqrQhsMa7POiwNcmRCvAznTr+F1WXGuvlCsHDAS5jmwcTKjUIciV+Od5TiS20hpBo/rM5AIKd9igKweqk9vhdeIbo1C+D516lwMpolux3ltRDjqEuD/IMXUSPuNkO6CD6PT4Ss8aEkMd5e2u4zHtIPUSG9EdrHEZbk2kkQRBuYsbhYEOJwRMJXPV+Id01qUM21opZ+8J0j5LTEbGKAIMTrVKjjczqBkCAM2jADd4hCXFmYgeQde3Hw719g9wObsfvx7Tj4UTwy8gWLuDQoGmNfCtK/UWOC4oFAJsQZZZlf402jCXGONHxxfgfOcUqmlzuGhyyAr/BC20izwbKvfMHrebcCPLzwtvUuJTqcKqFDa9kH9qGaDZa9IvrDnj1oN5R1UIt5RPtosxgP9XYQEmVFyBBSBEEQBqDC9CjBMqw874GXyRfWRJQhLb6Q/TdH7yGaZglK4DvQnf1X48qpDNQKmR2ONCYEXpwWqL2G5I1f4ODSOGR8Wwhlhtj8X6uB8uc0JD+1Fb+equCzLIOGod9EPqmTe3pHwb0XS9Scx//kbfDr1sWNvXgzNY3d5ewKesRgrlTIbitX9zphVxpnt6xBYHQFZgjZBGFkClF0+ipuwBLOEZruMh/YBfugF+uWlySd5+9vov20WYwHeghivO5aLrL5FEEQhAE8oMBA3vDihIR9ElzlMwlTUPdVmuByEhAC35Z+qAMHwN+T/a/NQNYpIaszUG7+ET9viceRNf9DxsHW7W8Vaw8jlZ/naA3faO1++k3MwCgfwepXlr0XuzvI0Fx1LR4X+XF+RwzwjuHz2sO/4lwE67hLKSbfxWcRhNGp/zMRZfVAL98o2LfsRMpmwJF7xGouovySkEW0nzaK8RHwchFSxTmnhQRBEIQBLI8QrJkocsC+ThR5hAaq0nAljRO87vCZKBHyRKTj/Vl3Cai+mIFSIavTqPtfGkr18h65hrw04X6S+vrBhk+1gkME+lhwiUKcy+/IIN4H8UuuYHO39YzBKD7VDn6yx1n+NBXoF825dxFEB1D/Pcoz65hC9IEswkfMFLAY0B9cjAVlRoLQMSSMQhvFuD9c+QgQdcjP6YHTy8Lm4Lm3tuCHfScR/3sSEo6K2+8n8cuuH7Dh7wsxRG8HwDDM+vun+HrX0eZl/XoUP25ahycmNL/RNTFv/VHhM58/K2Sw43t102H88utN5XHH9u0WvPpAmPAePQmdshyvrv9GOL6fTzaVd/P2K7sOB7/Bc5Hih1qDHds/1/+AHw82Lyv+4GFs+ddyTGyX42T78Z6wHP/+8Ef80uJc4/f9iE1d4PiMjXTyQES8OwMTv16Ead8K29Tt8xG7LhpeMYYFUjaL6aehrLkY9e/BcO0vvombFMi9tjm6aWKgRq5joK8w2aTisjX28ykj4OIC17/GYPin83HPTcc57ev5GLPhboQscIeZznnbXojYetNnxY27bmM23IOIpb6QisaInkTBmWzeH9xjYMhNDYMjfEM4v+oKXPm9lbp+yGDE8tdpIQZp8TvXjCOCPhau7/jV+li0tVORL05esrXTKcZHOPmC73JUyHG8g8fZj5RcFobybX0wwNDY5bdggbNZQrgpe99aDONThmEdEIsZ8xbh4XmzMCqgcbpez8QyBtZ3vgifh7ci+Omv0e+vwhb21Fb0mbcWThFj0UunCpoK18ebPttYxjKujHVwHToVFg1BRXoMVai5eJn3B5cFTwXnzSUQBTtuwjN7vfTcQSFLE6GvIoS/Th/D0VnM0wez2XBfJlxfn8G3V2D9tonxMC+48olyFPeoYQofzHr1R8Rv+gdmjRgIb0dp84UfzKWwdw/EkGnPYsOWH/Hv6TqEdNgSvL1rC56bNgx93O2blyWxh0vYeCxa/QN++M9CeIvZrcI+gztX4+sP/4GJYa6wv9mAxR2b10BMXPENfly/BKFitlZ8F+Ltb09iyz+WYOIdYcLxWWtxapSw62AngTRJ3NdC6F8+wI/s2KbdEQgXu+ZlSexcERq7BK+y6/b2Q7o7IMbHB/P+8yO+Wb0EYyJ9YN/iXCWOrKEUj0/n79odsLWHx7/mYuKiwQjycYT0pnvPzFICh979MPSvCzHm1SDobkes4fTiDEz+a7SGsthrQQMxcvUsRNxnSMOugis/d84aVy/zJsp2Y/PEPZj48X0YGRMCD0cJLJs9uxL27Poi7L6pmPrxPeg9XMzXRG8X2FmJ6Zvgrpu9uxeCxt6NiRtmYdAiYfJfj+HbC7jCGXE9Q+A/UMjCxP7ow3U8rmUiq7VILafOIYP3MzJH7+j++jcssf24y82oQd4xIxl2LKU67+lQe+G3Uyku4zif6kDK5aILlhPctYZt1Z/1crE36ViH1m5jzQRg+Igg2HHqqpc9+gwcAHH2Vw/DFhaD16Hvk8sRMLQ/ZM6WsLjppuzF1LOVWx94TngcoUvWwd6llR661AdSDVVbL0uuDB+43bkAwU9uhntkW7pGXZj0eBRz9YFXf9g3hN/1mwpnTlyXJKOitUgtF8XPss628x16TuLgCI8C+6mA+qtQnL+9ZvO3SYxb9nED/9vUFCG7TWv+dkWYWFv/DZ4b6yNYTFTFuHh8Bz58dSWWzo7E/ctX4sWPvsepLHFoXeKDMU9/gH/eKezeAhO7G95ajjvdBdFXkfkzNr8tlLXg/1bhw90JuMwbcqTwvvMpvP0PfQYwZXj16RnoI1EiN2k/K28VVjwqHNubW34WywNc7liOf7/YWnmj8M//PIU7vURBWlOMy2d+xsFv1+PFV1dp2P6FzV/twgHh3RrxfuhTbFg8Ci7cxVNX4HLcRrz54mLcf+eDWPHqeuw+k4kKrpvNrtudS1q5bh2C8Ns+c6f421Zm4ig7178vvwfD7uR+D3Z+cU3H1+rv2i2whtcr92F4iNCCKPPTcPKjnfjx8c3Y/cx2/Pz5aVy+JpgD7fvFYuQqbnKeduyfm4pRAx35yqJekYM/P/+fUNYDm7H37zsR9780FNfaI2hONBPY5sI11kX0dbjxCSkURnAWt181C+PHe7HSGLVluBx/GHGvbsfehcI5c1E3Uq9UoJ573coLg/56D7y0GV6unMcJLlrHzRsXuePVvfgjPgOl3AxGc3v0njwVQx/pSZbFPFy5wNVvjug9XhCrDsMEl4/SC2k6hqRVyDkmFyKt+ATAW2v84+Y43BUgjKBcS8OlVgxtetHQminK0HqAr2FwF03n1TU5QqJDuYxSXphYwsla57CMbi5LwLdCViqIbu8GoITy5nA4anUPjIZhC8vRTIiP8oEluydu1JSh+OTXyNz8IlLfm40LH76ItG/2Ip/1PLmpAr2sfeD74Iuw1XYtlR/j6jvsczdvH/wdaZs/hvxkGiq5OQFmtnAZ+zQ8+/cka+5BVKRzN647HAdE8TnS0D58HVuZfhCtO0kdhCJFEIfSPsOEelknPrAP78Nb4dWZJ1Bxm/nAtEmMh4qTN1GUh470tutMvJ9+G0/yKz8w4Zy+Ay8uGIsFz/4Lnx34GadYfZ3LidUtq7H0oTux4NMEoTKUBGLSE//AAP5TzZn29EIM4dszJS7vW4ZxC1bio2+Fsi4e3Y/P/r0Ysx9dhYNZ3B0nRZ8p/8C/dQlAu0EY4luBUx/cj/ufXMXK24+jqcKx7fxoJWZPXIaDYtviHfsY/iIkb2X2QozxFzsJZ9ZjwfixmM11Nt7eiIMH9mvYduCjD76AdrfeGXhuDhcHnKHKxO7n78Tsf6zHzsMJyEUqjh7YiNeW348Fr+7HZT60QCCmrViHTtO77NrOF39bVdb3WDHxfqxg5/rrGUEFXjzKzu8f92Pc8983Ht+kJc/qN1rRFXkgGoMCBElcfmovDj4Vj7yfK1DHBS65WoPqvWdxjonLuEShY+kwZBwipvLJWwnpj/DhwrWrk8fj4KKfcGXvNaEsRn1GBcq3xOOPZ35EWlUAgsY66lfxWvGymCFlIk5MtpUHxiJmiHCM1WlxOPj49zj3jhzlZ2tQz7Ul7Jy5qBtpK3di/8YLKOfeaMkE+aMGhMHjInecLUTxO3E48vhOnJHzNwq8JkbDwwj6qqtQ8XMmf30cIrj4417wDeU6G4W4/L1ohGiNHaJlnTXeQbP0GTVg5fcVOjPlaRnt9j91Ekzs7Cao0BEZxa5xlLK0ujNWl2JiXAxB42QtiJp2cdkCwpqctXAdzCcMIA/H4s6iqFoFFetYn4g/raPj0g0JXoWAQY68qKtN/x7pGx9H0dHvoVSk4QZX7SjToM7dgtLvFyH1u0TUcHnSPvAeN/smdwwd1MmhVhxGzdEXkb3xVWRf4Xo4rLMVuwDWbVJVXZO6pGT+WbINncjObirsg1hlV38VZWfOC29oheunTkDBXVvbUDhoCZHYDOlEyLiJ4qxLX5aubbGhnksbbhsb+IlmBUVhlmAJ6fYwMTk+TLDo5f2Mlx75V6Oo1cTFzxbjpQOZuJa5H+++/i+cE/ObWI777hAceVRM2K/41xE+fQs5+5kA3ofLvGnCB3fOX8Jna8WFlXn8LSz9Spsp8Qhe/F7sKFgHYuhsPvNWglwF4axOxe7lG9u/GNPi6RjKt4NKXNy1DK8d5XNvIffQKrx5KFPY8RqFRVp7C8blmVmjwB9eZQI+/L/V0HJ4wNHVWLGb9W4YkuDxeHIon+xmSNB7dIAwTF94FsfXciHrNKFG+etNESiCJmh2LZDeGyLGl87Dn++laX/er+UhdcsFWPm0bmVvpLdKh0+5vjiyYxfPNz8Bcf9goq4VJVZ/8Bj+2J+H8oxjiPtPhmApN5SqCuS8fAxC+xuAgIf0GgvoHpxKwxXulpEFoPdz/dCbc9e5KkfuFf5VHeThUpJgDXOI7K/b/WFikBC6kBP7O9s7xOoCt97C71CRk6fjd/WBk84ZnsbkKqqMOdcy26x9HZfi0/jx+63YsfsnXOwxI9sNRMExOgSc49uNvMO4su9rqFu7GbLXIvu3y6jKPAj5j1/zlnKDqT+Pyh/24BpfH4TAeVAPcHNsoOQgyjjDiywE9qOGw5n1nW/ks/PV5wZUfo0SbhIoq52dB+ru6DTELuejtFxsvTvdE2mDGB8ML9HoUV7QQyKpzJ6MSFFMntu3UrtYu4mjr96Pexaswk5BuzVn8TDwBiUU4+TOt5DLZ2rh5Gr8mirc2ZLA4ZjHp7RxFUk7dKy79vVZyPlQWvZwCeJztMP50RphwuITw8SOzLUE7HyvdZ+DU//6RVgIA1IE3LGQz+tYnsWQQCGVe+wTbNMxKp379hHx+HwQMpbP6l70DoEXb11Q48rvp3U02tdwKUEU6z5+Giy89vDmJ+uwJ+Pin8jTJcjizgtCzhAqJLgsJtvETT7HGXvO62UcqNv8I+L+fgHV7Vn8sioDOUIvGs59uu0YigYqkJXI/Yisgzac6+Sw++jYeb07LcqdaeBdSW2D0EfHRE6n6ABhoiUT+zl6if1WmMruA8F3EoWJ+v6wVaL7CNFj8JgoThisQuEfH+vlgqNOWoUruzejTp/KQxv1X6NCLhRg62W4J3/X5TwqkrmY47bwGBwCc1bDlpzVt9NShZqzF/k2qJf3cDi0OpGzIXY5q0Nu0ygthotxS3948ZVeNfJyqvms7s6Q/j6Cla7yLA5/xme1i4khTb7Jp/bxWa3y0XlRjtj5IKw1cVzJxPhJMa0VBZS6aqAzmUyGcQRi0lvrMMuwACwtmIxQT9HlJSsBu/lUa6xHkiiI7d37dbwryAPsO/gh6au4uE+fIen1uCwKSlffzugsGJlh7hDqvEIU7+ETrVJ/LE8MV+cIh1vmH7nDSTR0F2XoM7muAsVX+Z5Mp2HWz0V4dhVyXGmvz7GBVJcK9Z+lVU/yG+dGD+SCoOaoy0aeHvdRI1fOQ86HSNQ1kdML3n0FS3Zeov5iXzOO6DM5RBD2+eeQZsh9oLdfAtEd6OXrw7qRjMo0VHTyAih1CqFnZ26lj4tW9+FGMhPkDQ9o3WXRj1xPsveipIRL6JjIKZ0KGR9MSUeUlh6M4WJ8oJcw5I9i5N3qn9EtCXUUpwpfy8E2IdUu+jiKA/BlxdBrUcFcheBaAhlcOsOR+sBb2HqymE9KfMfjuU1J+OXbb7Dh1X/gL2OHGSiQgyATh3wrCn8WEjrILRP9Tx1dMUZIdRzeMkGscZNUdXZkBC5f08M/toti5mojuGwoylCuT515toz3CeQsofb+fKKJ3tZCWezurNTTclmRZ+C4t70KfcRkW7B1EZ+1kmviM9R5VBeJ3raOjsI91lNggvrcV8dwZj/btp1EgYHW44K4DPDdFJ8Q9BnCZ90K6yTzLjB1rBO1U8hqK5ZPxGAA32msQcYB/UZHBGw72V2F6GgsHMThvZKrne5Ce71UjMLv4C7Wmz0E5dco2H8Q2b+xbd/3go+93iSi/DxnWWd6OzRGqz+9+R39haAguqK09GAMFuMyXzfBAsEae9H7t9vTp6FBNxKuDWH91LWtu6g08G0O69p0Jlex7a8L8OLXR3BZ1E72XmEYMnYOnnz1U/zQEE/9xeWYptNq7gI70TCoVOsXFmNnYZGY6gTsRH9e64FYdFNc8da2Z8TJnt0RW0dDrbRlqBRmg91KH3vhWTcEfSvqhogQ7cTOqWOs0mZRvvBddTdGbZ7fLK76zds9E9sXF7srU/39BeRsZtveNvxKB8+zDi2XcESfezRfI487/HjBUnc502Cx34wx0Rg5Xhi+qT7/G5L1mvfVEN2ks+gPJ/3CSehHpFoQLsQtSBz1mCjYFhynwm70Wvgt3oq+TzWPN96wBce2x6zQlanC9UubUfkn2+SGh+y48ecJlHA9I63+9FGwDxaeYd1RWnouBovxMDdxWs61vPZP/CNMyFUcfG8ZZk/hQvutx87jZ3G5sAIqfoRZjKc+aQn+yVnNN/2jxy2GQxiCCrXGXturrqHqUcI3Wkx2CcSY6i/cjTuG+MJJJhHiqqvVUNaqxE3N9zkse5T5y5iU4fIpwdfLpm/QrRM5bYPg1Ye7qDW4EicX8tpC/34Y+lg/ofyyCzjxpr43qQoqsdPoZNMZsaHdYSvaBAqr4oVEe3BRixGLrJHzO58gOowQWI3/GGGPLIDfoD6ws7OEJTc7tL4OdTVNG2f57XkL/xiJ+q8bJ2Ta9514q2eY81jION9KPaO09FQMFONe8HMT7jhFQc9Z7afRLUEig7ZRVUMobphqbG6ln8vHA77iIkqm4eLRjXjz2QWYPf1OxNx1D5a+KIQlbLSah83Bi/9ZrSUU4TUhzipDaq7fLPJZ7kKE6U5BXixYYNWp2HZnJB9XXN9t3PIv+CK6E1VlhvpsO8JOm5mtTCVaKSRcaG69MLO6eaWdVjhmCWF8pBKuuiYat0JlqXi+VpI2+Nzdiv2qppjqFRmnceSt7djLxRmf/QUOzt8qbl8IeXuN3UPpOdR/dUGINqNpIue9/vDimpGqbOS01T10eH8MfyFaKKcsDUf+cwwVelu7E1DY4GFkq3N5tPbTK0CMa16nXxQKHfj0UQpuUbWW4twfogFVmXgTWNoYYToAF6/8WQT0F8MkZh7G5W1/F+KMvzcflz5u2lK5vJ/bNRW9R6M8I4RI1DSR06JfCLvSBkRp6aEY2H5FwtVJSMlGLMNH729ufZsmrvwgi8SKhrxntcXbMx0Xy8Rxendfo8S+vmyoT3SDXzMUuKZPKJcO5SpOHRYW7Jk95R68eCCTX8pZ4j8DTzwtvKM5GVCI83jt3ccLCR14G+pT3x7SRX981lEI7Xq3ntGpL64WfCVljmhwn2wVJjyFt9WgIotPNHG2AkJ4ZBvY6Nl/avTh1okEV3k1fh1uPm0fmKxq6Ei7NExcbQe2IQgT45UXHN6JX/9+FqXHato5ufA2pSoDl1O4jtKtEzm9hgihKMuTzgsx3w3E8r4YxK4cBo9GIR6PUgMX6zujEGdpy3ygz3Jr7YJ9hzAIX4gcbS5hBjDDT6xwC6XQEVvrtuN6w0QZV19oWETXMMxmwCVSEOKKo6/i8u6PUVvUjpGc25mSHSjlfXZbTuSMgX0oN+HVkCgtPRPDxLivP/x6VuAAnlPnr4qCLQxDVrQ/RujBtKu8gIVdIIZM4bNa5Yn+oq9Z5VWk6gi917lcxcFXP8FJ0fziHawpush+XMwXurP2/sMwjU+1xnJEii4vFYUX9POpb0QKqaHuMid/Fv1X7RE5bnm3W8jH3FAXyIRC8JPXWfPvei+faBWzaC8I/esylN8SbKYQ5fzoiDlc++ljGreHq4++FYQ5UguEtcHt+1RjBp8ynPoL4sRNSz/46gilp5N7xBGqOjkyNogivxXsfdoXNcHcXM9RBL2wgJkxhgaMSPmPaYLYvnkiJ+vw+AZwiTLkxBka5NoaTqvuw/gFIXBgl66u8Cx+fcZwIc5xjolxvo627YMRxvTn1sA97n2E6Fpll3Gi3WpDhWF9BLN+8RUpq6GJm7mRcxX8WJllHyby2uk/HhQCGfdM1aWh5KRu9wlLdzH0VBvpZeTn19jltQ+msc6m8aEmm03k9IiBAzcya2iUlh6IYT9Xzif451OL8IS+224xBIMiCW835L31tZDXlfh6P5JEwRk66RXMa69/9Ke/4yJfI7hi6H06BODQ1RgTJrQGqswTRonmYlyKoeJbLe18dCxVaNhchuG+xa13Zob8YxwG8HpNCfkZPd1AMhuizbjCexKfMID92CautCmJmIN/PtT+zlaHc7lCiEYBFzgYGm7mShqu8qdrjt4x/XXM6ndB32FiA3I1W8NEujIUZAluIDbh/eCqq22L7Y8AA9qj9acdhXiyLgqMa6t/WNwFXOGfXXa+d0fDvj3tr51UuF41Nbrj3Np6oXdI2ywTtZXCA2Xj5W7o0KQG2L3CD19YwyFUdEzuKpw6hwz+XmyayGn2UAj4VH4aLmtf0vdW+gdhwOa5GDXEhf1GKhSf+gk/Lz1tgGtKC8oTcZH/kR0R5mGEVTG1MhHD3YWbsupaooYF4gzk7iqE8cXJkJnYxs5cL0f0Du2HULb56DuQ1V0oOIgy3hphCZc7l/PL4bcZqSWrVRjKKt2TCs2mwoFbndJgSnGdr2JtYe1tjLbJ2OUZkYvxKOae15smckoHhLCai+vvnDAwSkvPo0v1nUzH93jzZ1FQ2g3DMxu24Jl2+atsxP/OiKEDIx7G2//QMhDqOxmvrpgCfi4T6zke3bqRz+5KeD/0GIaIRtGKsgtCoiWf7RKt51IMmPcB/qnl2nlPWIvnJogr8OQdwWZ9Y7qfPItc3hjEymdlGPrTnFq9A6d4I5w9hizZgg3LOmBgupc7wsfNwJxZMzAupJ1xZq/koZQfzpag99h+OgR1S1TIOSIXXFU8h2HkKm3q2BwOL4xFGO8vXoOMQ5pjPTdaNy0DMPSVEO3HYuuOkAVBKE0zwI96ry1SeTFVimHTa9C2pqOMHbt4vrJ+iF0XA6cQ/gXDySoTOkEyL7i31jlw8ULQm+PgdTkNbfEaL5WLPX/Pfghpd2zPPJTkCymPYYPb1xkxOuxePCb8NlxnzsNWAu/+wv1YcDZNP/cfW3u4rroPE1fHog93r9bm4c93tuOPtTnCb95m9uJEvqDkHfvMwMwOijfu6z5GXACuDOdy2zt58wZWT7gmTN685oT9bZ286dwPQ4ZGY/jQ/vDtYv239pOIsmNpgniWRSFo/ouwauszca1McNOz6wPb1nzgLCfCcfYcyOTn2a9sKL+iRgwuJhu4oH2dBx5jl2dMDkKRIlwhWf85sGAdVds+3I9ThZLU22/5+5aYOzk5rRbTxidoNKaGOrCeZQGO/3K8y002kVg21UQVJ/6AMuo+jPBiVZ2NJyLHLsKMmEHwZodvb2+OjGxOXIfhzknDEN53MCbMnI9ZkwbC/NdjyBCKaMbFQ0DUzJHwtrJg4mAK5owJho25GlBkAn3HY9J9T+HlvzOh685NzVbi8r5/4vGvNAdzjpz8qHBcqqs4sXW3DuvKIExZwL6XnVpZ+of49oiYfRPeT6zDv+8bgxGD+kDi6Im+vZ1Qc1lw1fG+YzxGDgzDXfc+iceefgkrmXjmK39VKna/8A5OaPR5vICD9YMxZ7gPpOZOCB07H+ODbdHrBj8yy/anYNqS1/DPBaKfpyoTu//1F2zTe1GGszCPnIW7etuwpzgYYyez85MqYW5RDXmeD/+bjL/3USwc2wcHj5wRP3MzZ7EvywPjY/vBSWID7wFTsPDeMRjgzUSzjUXjuTf8viPGz8MEv3ScSNXtqtCA54hpGOVvz47JCjIfL5hlXkC+jhEF7dSgsk8f9rtYwdzBD73vskW1qhRKpQr1FeawHGgH+1FB8B1midI/xZloN5PCzmdwGHydzWHlHYKAhs+Xs8/bWEN6ZyDCVk5CVLAQuLD81EGc3KzFxJjLxF5gX/TxlsLcsbd4LEWozrwu+Pe5WMNmykAMWnkX61RmIClRCv9ge3ZLF0P+vxyhg6sVcxR71GNKYDUsXK4jpNgRu9vikplyGQXiMfaycYH/6DC4D5Si2rwS6l5qqEu5IxWum6WnPWR3B8B9pB1qWQ+t2fpYcjWspwTDWWIF9yg3VFXmorLhPBlmYe5wmX8nhj8xGL72FUjdfBk2Mb1hryxFnrwItQVN722V9OuwntoHDuZSuAzuC2t3BRSqOqi5z/uw36e/J1yn9Ya1qhDVesTcrZQ5IbC/I8ylbvAf54ZaNRMRahV/3mZh9rAeEQCvsfa3nm+AH/oMd2PPdyVyv7nE/uqBoZ85Xwspd02tHGHpXAfZAG/YsQ7EhVcvolKnmnZE0PsPYHBfG9Zwq1GRdgrHPzuH8hpLWHhKdWzmuKHj97ik8MQYfya0zF0Q2KsEP5VebqfAb0GvGVg1JAYe5qzKy92PF/OT21W+zwPX8FJMKbsW1kjd74U1yeILhuIVjqF+XM+mBBkJl3reJNCSBFRYxcLJ0wq9rN3hFDUZ1s69UVddjRv1Ktyo4yS2I3rJ+rJnJgDSvhNh07sPruddaH6/VNrCbEAU7Fh9YBc0BLX5l6CqaJDbrH2zGwXroY/Db9pYONleQ8HBZFbHhMC67hrKL13BdaU+0rwOddcHMo3gAjOpF5z6DYGqVIHrdVXsOM3Zd4TC0nsi+/6+tx6fRtpRnl0MHAd4wZJ1KcqP/6zfvWrgZ+oL3SFldZ7UxhHX1bZwDHKHhSIZ+XHxt/3cnF6BgYF6tR9t4u7VwiROzk3lH+90uVCItjYtu8w+mPXiB3iCCVCmv/WAico778dr4t4thC3B2288hjvdBTcUzSiRe/R9LP2/L7T6T89bf1SIfV2ZgHcnLtbhyrIQGw4+iyF2YAI/ErP/JWbfRGN5+sI6Ab++txh/39W6h2LoXz7AOw+Pgktr1hZW1tGNi7HiK0O9HUfhn1+twzT/Vq5lWQLenLIYWtcQufNZbFgxB0O4jo0OKs68ZVA0ld6jFmK0f8NNU4GUvTtFa3xbsYbXf2diaEArF7PsPH5enCC6tLTA1h4eL0zFcB2uFBUX4hD/YoaOStQaHv+6X0dZTJx+sBNp/vdg2lQv9sxfwK+LjomdnNa4jk83pmOY43XWjnjg+9XuWN0GH2AOm0V3Y/hEXz2f3RyceOCnppUmGxgzDLFP9Od9krXCxG7GVz8i+X9+GPptjOB20YC+5z0mGrHLxLB8Wsj532ac2SLu6MB+1SyMESefakbD+cZGY8zyfrBn4vjkAz/qZ+Vvw2ekz87AxOim0aK6tDj8+A9NJoyWuCBk833i6I2h6Hd8owI+xl/7ChPILietwd8K23jz3UIIFg54CdM468ONQvwStxwb2j5PmRVXjR9WZyCQM2bk98Gy5XbQYGfRj5B78PAwdtcq0/DTzniIAys9DFtYRL4Iv9F9YKWPdbj+Mq68t0pcAO0mvJ5F71nDYNtaGfVlKNj7Fkoyh8Pzr1PFOTgiikRc2rxWR/3KRW1Zh6BBwmRRjWg7Po20sTyPVQiYG8Vqe/baO3p+l8GfsYX11I8R0LdpjLXq5FpcOWp4/PKeBrmpNOMqdr56P8Y9thqbDyQIcbc1mfZUSqgqi3E58yoqIsU8TaRuxIrpC/Dat0eaYng3oKrAtdSfsXn1/bi/FSHeEUgqinCtkp1DjRbPWDX3WgVyUxNwcMtqLBhzj04hznHxs2W458nV2Hk8ky//ZrjrdTFuI15ccE8bhDjHEbz20AK8uZsLuciO7+ZryR0v93ukX2BVQiscfQtLH7gfSz/YgaNJ7LfTcP7cNeHKKq4wbPz2yql4XBbNhJXyM0hulxDnqEHe37bj5/9dQF6ZCnXNzlcNpeIa8i4WitFONFBVgYJ/bMfeD44h42oZlDd9vr5OhfIrF3DynS/wq04hzlHDl3Vw82l2H9e0KKsGpRdOI241E+JtCo1jgcVv+iOTOwjLAsx4sQDrYoRXDKV680/4delOHDl4ATnccWo4sXouTjh37TLKoPYUM2/m1wTEvfoj/uQmhtY2u+j85y4f/gkHl37PhLjgS99mfj3Grpmm7xGOsfxqBgr1XPWUo2LtTo2/D3/ctUwsXMjV3GnrBJQ7027qBHCxxfUR4p3DEflb2F3A33zow8Tzuz4xaKeTGWtVJ+K5waIQ50T+ufXtEuJhdytwuEGIcx3W9e0Q4gxnB2HiNDc3Qq/RkG5JFa4nrcLlD9fi8m+JuFZUhToN9YGaVRJ1lYUokxdB3aQPm8h7C1c+34yrXF3LmotGy2U9+ynY54qPbkH6h48zId6eThw7tt9WIv27wyjmjvPme4X7npoyKNLTdIwy3oyxyzMmVag5e7FpTk79VZSeIiHO0bGW8S7OrZZxgiDag/SvMzAxhsmZ1qz2GvAZo8CWx7PgylukJai44oEjv9ph3zELHOlx4+i3IXPG4p4HAmB57SwOPn5a9wTZzqTXWDw39HGMaLDAV13FmcuH8UtxPI5f17NX3csHodZRGOUzFnf5+YiW1DrkpLyHf+Qm6GExbI6PjxqjomowZXwxBvqI4yx17vj5HQ+svCXqkWH0Gb0Io7ggBTlx+PK3rtMxIm4fLO78GMFDHaG+9D3S9nbBoB4mgMQ4QRBGw/VfCzEyhCnqjDjs/rthDb1PfyVeeTwXwzxvtddl7h2A+7vfGkwET4O7iRp5e7fj5Oemscm1Sq/+mBnwOB4IdIek5dh+wV7MPKfNX2gB/jt+Km5ZCF1ViDNJ6/F6mYEW04WFSJra0nnKAsp8L+xY74i32u1FI0H4pPkY4gpUXvwfvm+IW0sQnYV0ATwXT4WTZRXyty9CqR7zYm4HyE2FIAgj4QWP3oKzdWmeuKiKAVw9L8Xi5X2weENfHElyRUWtOJxOdGvsnxOj9ijSkNoVhTjHjfP47vJyLP7tY3yVdh45irrmrnD6oKpD2bXz+OXkWjz6+3LDhXgzpFDWOuFqUgA2/qsfhi43hhDnsIe9uBpOZSkJcaKz8YHtxIlMiAPqK7+ijIR4I2QZJwjCKFguugfjJwsz68+9+j0unxVfIG5bLOeMRewDAbDhwmd+vh3JFMHMxITg7vkx8GS/x8UD23FCiMBLEJ2ALSyj1yJguDss6guRs2l529cJ6IGQZZwgiHZjNjEaI3khDtRlnEUWCfHbHHPYLL0HY3khzoXP/IWEeFfAzh5CTKQylJFhnOgszPrDavw6BHFCHHUoPbyehHgLyDJOEETbcLGGNMoDvhOGol+QvdCzr8vDyZd/RJ5RhtSJ7gMXx90GNsG+cOgbgKAor8YQk8qMeBz+e5oeUXuIDsclGjPu6Qe7Hh3WkDA5Zj4wt/OBpR8T4b2j4BzsDqlo+q06/TGuHDks7BCNkBgnCKIV9I/1XH8tDUffikcpCfHbD9t+GPpFdPOY6+oaFCT8hpNv5d32C3p0Gfreg4dHsF+p7Cy+33u6B4c2JEyK1yr0mR0FcXoCz43rZbj2y3oUXTgv5hA3Q2KcIIhWkKD3+/MxSFNMbkZdbQ0qr8pxOe48cvbrv2Ip0dMIwdCvo+Fcp0J1YS4KLmQg6/scKMkVgiBuP7jFgGb1h0VdFWryclB14SjKMw7jBvXKtUJinCAIgiAIgiBMBE3gJAiCIAiCIAgTQWKcIAiCIAiCIEzEbe2mQhAEQRAEQRCmhCzjBEEQBEEQBGEiSIwTBEEQBEEQhIkgMU4QBEEQBEEQJoLEOEEQBEEQBEGYCBLjBEEQBEEQBGEiSIwTBEEQBEEQhIkgMU4QBEEQBEEQJoLEOEEQBEEQBEGYCBLjBEEQBEEQBGEiSIwTBEEQBEEQhIkgMU4QBEEQBEEQJoLEOEEQBEEQBEGYCBLjBEEQBEEQBGEiSIwTBEEQBEEQhIkgMU4QBEEQBEEQJoLEOEEQBEEQBEGYCBLjBEEQBEEQBGEiSIwTBEEQBEEQhIkgMU4QBEEQBEEQJoLEOEEQBEEQBEGYCBLjBEEQBEEQBGEiSIwTBEEQBEEQhIkgMU4QBEEQBEEQJoLEOEEQBEEQBEGYCBLjBEEQBEEQBGEiSIwTBEEQBEEQhIkgMU4QBEEQBEEQJoLEOEEQBEEQBEGYBOD/AcOQfcC6PI8wAAAAAElFTkSuQmCC;" vertex="1" parent="1">
          <mxGeometry x="300" y="280" width="739" height="221" as="geometry" />
        </mxCell>
        <mxCell id="YB4SYMOb8FPgEB0KAVOm-2" value="" style="whiteSpace=wrap;html=1;aspect=fixed;" vertex="1" parent="1">
          <mxGeometry x="1039" y="201" width="300" height="300" as="geometry" />
        </mxCell>
        <mxCell id="YB4SYMOb8FPgEB0KAVOm-7" value="&lt;h1&gt;&lt;font face=&quot;Comic Sans MS&quot;&gt;Call stack&lt;/font&gt;&lt;/h1&gt;" style="text;html=1;strokeColor=none;fillColor=none;align=center;verticalAlign=middle;whiteSpace=wrap;rounded=0;" vertex="1" parent="1">
          <mxGeometry x="1160" y="50" width="370" height="160" as="geometry" />
        </mxCell>
        <mxCell id="YB4SYMOb8FPgEB0KAVOm-8" value="" style="rounded=1;whiteSpace=wrap;html=1;" vertex="1" parent="1">
          <mxGeometry x="1101.5" y="441" width="175" height="60" as="geometry" />
        </mxCell>
        <mxCell id="YB4SYMOb8FPgEB0KAVOm-9" value="" style="rounded=1;whiteSpace=wrap;html=1;" vertex="1" parent="1">
          <mxGeometry x="1100" y="321" width="175" height="60" as="geometry" />
        </mxCell>
        <mxCell id="YB4SYMOb8FPgEB0KAVOm-10" value="" style="rounded=1;whiteSpace=wrap;html=1;" vertex="1" parent="1">
          <mxGeometry x="1101.5" y="381" width="175" height="60" as="geometry" />
        </mxCell>
        <mxCell id="YB4SYMOb8FPgEB0KAVOm-11" value="&lt;h1&gt;1&lt;br&gt;&lt;/h1&gt;" style="triangle;whiteSpace=wrap;html=1;align=center;" vertex="1" parent="1">
          <mxGeometry x="1041.5" y="391" width="60" height="80" as="geometry" />
        </mxCell>
        <mxCell id="YB4SYMOb8FPgEB0KAVOm-12" value="&lt;h1&gt;2&lt;br&gt;&lt;/h1&gt;" style="triangle;whiteSpace=wrap;html=1;align=center;" vertex="1" parent="1">
          <mxGeometry x="1339" y="400" width="60" height="80" as="geometry" />
        </mxCell>
        <mxCell id="YB4SYMOb8FPgEB0KAVOm-14" value="" style="shape=flexArrow;endArrow=classic;html=1;entryX=-0.087;entryY=0.613;entryDx=0;entryDy=0;entryPerimeter=0;fillColor=#d80073;strokeColor=#A50040;" edge="1" parent="1" target="YB4SYMOb8FPgEB0KAVOm-11">
          <mxGeometry width="50" height="50" relative="1" as="geometry">
            <mxPoint x="580" y="420" as="sourcePoint" />
            <mxPoint x="1010" y="260" as="targetPoint" />
          </mxGeometry>
        </mxCell>
        <mxCell id="YB4SYMOb8FPgEB0KAVOm-22" value="" style="shape=image;verticalLabelPosition=bottom;labelBackgroundColor=#ffffff;verticalAlign=top;aspect=fixed;imageAspect=0;image=data:image/png,iVBORw0KGgoAAAANSUhEUgAAAJMAAAAwCAYAAAAVbUhVAAAAAXNSR0IArs4c6QAAAARnQU1BAACxjwv8YQUAAAAJcEhZcwAADsMAAA7DAcdvqGQAAAAhdEVYdENyZWF0aW9uIFRpbWUAMjAyMTowOTowOCAyMDo1Mzo1OcPumgoAAAsLSURBVHhe7ZwLbBP3Hce/xZB3nTo4JKTxYtnkAQEXT4FkKCg8ykNJaZehrDw3KloorLSaBO2mbaKgorXbVNTSUgZj4zEgCrBsREGwiKkZVmgAYeHVwSQ4i2XXhMWLW5OHbWp1////LiEPP86xSUl2H+nk//3su/Pdfe//e/z/9hMqleobiIhEgQn8q4hIxIhiEokaophEooYoJpGoIYpJJGqIYhKJGmO4NJCK/MpV0Ej51WHYoCuthpVfC8miEpRt1yDg7lov4dRrTfyKiD9EMfXxCMSk+GgbilX8CtpxdctpmC386lAKi7B85xzI+FVXYyVqd3Xwa48aCZJWz0H2AjWUaSmIi+HN8MHt6sS9m9dw45AZbgdvDsD4K1r2iyJMMQVAuvPHKCskEotYTIDj06Oo+42LXxuMbM9GLNcm8GujJ6aYlSUoXqNBWjxvCISvE4YDlTDW+njDcMSYaRTwdvXAS17lM2cgjjMNIRPKbCokD7z0g6OE9M1VWLGRF5LPBWtjPep+fRhVFftwqnQfqnZUoq6uDS6qH0kKND9Zh/xFbFO/iGIaBdzGG2jtIg15LtT+bkZ5LpRJ5NVhgNHGmR45GUTAz6SCejSX8SKqVx2FbpcBjss98HVzH/EZO+DYW4PaHZdgZSKXQvOiljhF/4hiGhVsMBupe5NCtTiTMw0gbX4u67Hs1/Xg7+Ojx26DYdNp1FedIGJphjvYgU1NuFJrY70rFNOgzGLWYYhiGiVcF27DSV6TsnP7g2xGYg6yVPRZb0fb3zycbbTobof9SCe/Ehzfydu4x1rpSFvMGsMIW0xxz2uQ/8EqlJ3ditXnt/UvK8+uRcmeOZAXBOoEHyJ5vWLQttyyFeV0H78tgWJJLP/JcURjE8z0biSRjKmcMzF+MA0K6mtajbAEyvQIGe/z1/tYUYC4KwDrS7GSXd8KqPN420jo7oCTzx0S5f5zXuFiylNCe2wbyl8tgSY7FdL4waKJiU9BhrYIS3ZvxfI9SuaLAyHLGPRs8kgQR/eRr0HxTzeh/A8lkEdy8o8dLrRebyevsVDNV3Mm0s4qVpNr5YOZiC0Y9ku3QcMuyPMxvYyZBKEopPsnWO+gzcRMERMT7/9hFyamvBkofncF8uTcqstiQMOhSlS/sZ9E/ftx9hc06m+Go5d7X6ZdgUU707kVPzh+dpBlCwOXqh1HUXOoHgaLi1xa0gNmaLDkVyWQJnLbjAd8R4ysVBGjykUGPa+sGVAqyKu3DZbj9BNBqNWjhdV5EpA5b3jc5ZcsLVSsNEHEqtOz6zpyJP2B91f3/JcsBIgpBdlvLea6Ym8H9B/vR+2WeliqO+BuoV/PB6+eRv0XUfejo2ho5fy+rHAx8gpZUxA+EqB2VZNsZstRnP3YwOILyDSY93oKe39c0N2EVhO5ZjFqqNaQ2/PCNGQQc5fRwMcjwehESyPt2YinJL03E2MIJM9x+6ditf2FmUZO1lTImHfzoDvAlw0tpvVF0KTRRg9MRythClK0QrcLlrfOwUiUazhSA1Mjbw8TX209Pr3MBYYyrXZwwDrGsV9rY1mRoqAYeVrae/fA1iCsHuA7chNmujERY/aGUHFlLDI1nHdwmwywR5omLlVywgTpOP7OGsMIKaaHPvcGDNXMFBySIRheqoSxyn+lVyjuC2awXj0pHXItM40PThm4mpNCyz2kDiNu1bJ3QtPdjBZjD2tmFGqDB+J9LpSIte1ypMWrBKgLeddqbQsozBBiyoR8Ktey6iP1uWGi7+RrLnGI52O18YENbS2cICjOW81w820hOM8ZuRAgRCDe50LhugOzULEGYvUCzGY7I97pQmAdBBdTYgoS2ZiNC85mZhlFnPiKdW4JkCqZYdzgPF6L+nP1aDh3EQ0nhdV5+mnU4xYbcEyAanEOMw1HChVzoeRYN/9F7l4EJGZCW857J/sNGIN4p+BiKpQhmW9GlcRYSFcXQfv7tSg/uxU/HFRv4peaCuQHHMIf45jaYT9ggOVAM8mMeZtgPLDozCzuisl7Bln+qtGFM6BmcW4nzBfCFOsgEqB4rxR5dKiHznr4nZ6rggcgdAAebeZpUXxsE8rWz0GeIgVx8VzK6ev1wN230H5U8jAVFRnCcT7uQjqUzw0PxOMWqbmkxUqyRz0zjQAJZLsrUKyi+/fAWl0Lc4g6VXAxNRJXwxqxiIlGF0XrVW8WQ0FdZ28HTGdO4+xmvs608iCq+5YV1FYJQ2Qx/DjGhlskpqQMD8RToJzOlVPshqYRxrkJkL+7DssLqGvwwH7hDHSHHsZ5gQgupm4SBLNCZCzk2ZH7HOmLc7h6VVcz6jZXQv/HdngjnXD0f4r7ZBPstDE0EF80C2qasHjNaDkygrE+EierP1mHJWzWISek+g+FucoQbs4Gx12uFXgujlCkSFNygnRcvwJHiFl7SOwrko2cCdGsnksm8o3HBIseLbQAOiQQl85XkitNtNR6J/za0jwN5v1pLeZmUdfWA/OpPwsWEiVkzGRt5II9yL+LglcfzgQMH+Iq+dl8va7Q/itmYy5YmSRczC5uDAupSFnKGhHR7eS79ympeNwqFH3jdQ8D8UyoWdbiQevlcNJvEh/9fBXKf1mCLBpsd7Wh4Z3DuHo8tGsbSOgA/PhnMLDyuQSK59eheMTDGx3oYgUSIC0nUErLEbehFMuWkKTHEN7JMCykN2VajYVqqSbogLMQfJ//h0ut43ORF9HD9AjoH69Lx/Q15L6U5SKTicGMNiEFZoKkRIO5lVuxfH4q8zxO/XlUv1QDSwP3fjhIZDLZ23w7AL3ovN2FpxaqkEy6+uRpGswofRqY6kbv11747j/ANw/IxxQJiFPHY+LsTDz9bC6kaTa4Wrg99NGlzEJ+ThIkcgWmTPsSHa1OePs6KXkCkpZNR/72FzC/KBVo/ieud2UiJzMW3TYT7n7hoTNLBdCD+6psTFfGQ/KUEqqFT6Lb+1+4PXR7CWK0T0K6MBfK702C44aAHf77PvCsBhlJE5Ccm48pM3rxpbMbD+h5J5Nzzp2Myd+fiRQ/55tcWojvkLTK88XnaKkX9mCEt00vnBncNY2fPBGeRCWUUyfBpb8Eg5DjbViBis2zMZl6NW8HDMf/Cr2O9HXEMHFq8GXCpOH3Q/gPCvKU5EYvhSYj1JgQh7PhBC68M9TfJkDxAendsoPvw23RoW67HhO285P5B2Ct3kcyC34lIOQ4H5HjsLQ2AE49atbqeJcYAjZrgh/sDoC/8+37QUE4Pw4Ie5vEHMw9sQzq/u/WCf2uE8LGRV8px+pygTMQhuDv+4V2c32Y2mB8+SCq9p6HXt8OZy9RJv9WPz4fqxM5rW1wOP1ViXpgfeMwas4YYHV64B2wA5+XbGcxQLf3IKq36NEV0cAkOc5r/o/DvqOrA9Zbd8lzLRBTE3QvV0LXaCPn7Rt03vR7u+7ZYDVHOpI6QgaM1zGsTWgZ4QB7pIj/zzQuSEHesbXQyn0kA9tPAmfePMoI75lEHlskr5Qgn6aaLiNM35KQKKKYxjpZOSgsy2RTf62XPotsUDdCRDGNZRLTkf32AmTR4Nt+BVcPjfKvW4YgimmsolFD+0kFCtJIxuq1QRdiRH80EAPwsQKt4ymnICU/HRmF+VClJXCzKuh/AHx4AsY69qlvFVFMYwTp7o0oKxhcgfc5m6F77yLsBt7wLSO6ubGC72tuzpezHRb9Nfxj70FUrX18hEQReyaRqCH2TCJRQxSTSNR4YtbMWaKbE4kKYs8kEjVEMYlEDVFMIlFDFJNIlAD+B/FW8Yofl244AAAAAElFTkSuQmCC;" vertex="1" parent="1">
          <mxGeometry x="1105" y="448.75" width="160" height="52.25" as="geometry" />
        </mxCell>
        <mxCell id="YB4SYMOb8FPgEB0KAVOm-27" value="" style="shape=image;verticalLabelPosition=bottom;labelBackgroundColor=#ffffff;verticalAlign=top;aspect=fixed;imageAspect=0;image=data:image/png,iVBORw0KGgoAAAANSUhEUgAAAJoAAAA7CAYAAACDv5NcAAAAAXNSR0IArs4c6QAAAARnQU1BAACxjwv8YQUAAAAJcEhZcwAADsMAAA7DAcdvqGQAAAAhdEVYdENyZWF0aW9uIFRpbWUAMjAyMTowOTowOCAyMTowOToyNPM0FNAAAAmkSURBVHhe7Z0NTFvXFcf/iyfzKU9GplCEZcsO4ITNkycyUEREBUoahSYby5I1Zdk6pUmTrGlVKVsnTVuSapHWbVrUtc06kk0hEQ3KytCCiBKhVEWxaGmjWH2twYUYYdmiZFhYsyABr9Z2333PwYA/ngNcG3Z/0tO79zy/T/4+955z7zNfMZlM/wVnVaB59QAaq3LlmkQ4MAT7azcwJsiGDGWdvOasBsJfIvxgFjOBcXgcH+O9My240pz5IhPhHo3DBO7ROEzgQuMwgQuNwwQuNA4TuNA4TOBC4zCBC43DBC40DhO40DhM4ELjMIELjcMELjQOE7jQOExY5bM3ClHZ/jSsGrm6CB/sOzrhlWtJqa9D43Er4h5u5CYuvzAgVzipwD3aCqN/8xj2XYsse2A2yBtiUV2D7Q8/ewyNJwrlDQzRF0D3cgPq2o4+vI7ag/K2JbA256M99EwperQ4aE78GI3VxM89gkcThVZrkisE//ut6PldUK7NR3v6ALbb5mbQBvvb0X1qQq6tILpcaHdtwoYt61FalAuVbI7g7XwD9nNy5RHhHo0Roan7CJG17usbkS2ZFlAKY5koslmExA8yRH+SCPz7VhhkkYVDk/D2C/A+kLYvB1xojJhx3sHIFCnoKmCul2zzaKqAMZ+s/QKcPsnEkvDUBDz9vej59Vlc+W4b7KcGEPiPvHEZ4EJjhg9up9hkamBqKJVMURRtqaCebuy2A9OSiRljJ4m49raj75QA/+2wbF1euNAYErz+OQJknV9WAa1kksgrh8EkNlrjGP3nrGRjSNi/MuKK5pGElr3LisrXn0Zjx1xkIi67O5pRd3oTdFULu5OLUb24Z96+0nIUTeIxfl8H/dYs+ZNriP4BuO+Rdb4ZxibJRPneeujVZD3ihMcjmWJR8kf5eV+sidPPi8P+HdhNny+Jei2yjTGpCc1ihO3iMTQdroO1rBCanPmCUucUoMRWg62vHsX200aIzy4e2pJ532kZFbLFY1RaUfvyITSdr4MuTQ9mZQhi5PY4WWfBtMUsmUjZUGsmzyoMNxFiIsZufg6xmwddJTY0UpMi9NXi8Qneuxh1URNzlAvNshG1v90Ji06qBj0C+s61o/Ols7i84yw6ftmOnp4h+OVIRWvbifoTxVIlBv5ftJD93pi3XPlZK7rO9ULwBMljJ56zxIqtv6qDJk/aZy0QvuCk6Ra1qQIl4n0ZNsKoJ+vQKDyXxE8koNuBYb9YyEXp5sX9vJgYbDDR9AoRst1Bn2s6UCi0ApS90iC599AEHG+dRfeRXng6JzAzLF56GCHHBPxnbqDnR63oG5H6GdrqBliqaVERYdJZnuokUdeRVnS8JdD+DLRWbH6xgG5fE0wPYMRFnpnaDNMzxId/Zz1KiHnKKUBsVRMzieF+0SOS1pd4fSrUJKieko4vCtn3D2pKC8qEtr8G1iKxcB+u1na4uhN8L6aD8LxyFc57ExAudMHVL9tTJNzdi/dvTdKy1mab33le5Yx9PEpzavqqWlhsote/D1+fspxG+MIncIs7E6GWPZusH5uFUqvUqsy4BIyxDmejUCS0uTb+DoROakrM9DiEn7TDeSV2BlwpM9fdoC1FfjF0NmpaG1wWpJya3iZ9gf1ODHbTLcmZHsKw8z4tllTbEgcFkWaZCHn0VhqSc1EoEFopdI9LJa+DcRvvmJRzStnIkfuGawMfRoclsYgEBocwI5eVELjqlLoVSYKCSLOM4F24lQp5hUgutLwC5OWIhSACQ9TCkAD+TZ1iLjRGalgzBC51o/dqL/qu3kDfO1IXQTH9DgzSAdxcmBrKqWkxGphos0zO9cmn5K+XXpILrVqLr8nFZSUvC5p9NbD9pRlNHUexd14+TV669qAy7pydVY5rHGNvC/C8PUQieNmmmFl47G7az1NbvglDrBkh1Rthpv3qSbivpyjkFUBZMLDcbLah9uIhNO7fBIu+ANk5KmkwV/xJpsgittEqyc6JwSW5n4diGJ9aHBRk15ulAMpLolwHNaWV5ELrJ80XLWRBvRyuTczH/bwWerE5fjAB17t/R8fzch5tdws6I8tO0dYOId0+P2PxYZD0YUUWBwUFMG6QUkJjwkDacmfRJBfaNOmQ0yRsFnRlS2/HND/YJOXjpobQ83w7HH8bR2ipE8b+T5l5ZwBjYmFhUFD/DZjF4CnkxvAF9mOnsVDQdPrg/0IqxZ9LpRQNioySWP23P4Cf5i4SkPc4tEvU9rrlHFVQfVUuZAgeB4bF5O+CoECzxUino4dG7qY1dxaNoj6at1/qeEL3LVQdnv8bqqlBml8awZJWM5i8TVQfqABNA6WKOyiNCaIQBdtoYUlMB+RUxGOFyLQsS2T8cy4oKIWZRlCzGLnFPE0QF2XBwKUPIdDxERX0u36I2kceEprAFE0AAUXl8cJyiexnd+DJrSQ4E+byTYrxEC9MdZwF0zZrwsF9JYQ/+5eUHsipgGVJX7QV4OH4ZzE2PEP+Lo0VKBUnUE65Maokuc4IZUITx9heuwkvdWtZ0G9vxt62JlT+1Ih8Wy5UkeZJn4tsmwbZ280wHK6BPkYy0feZNFantjyB+hNm5Ee7LF0u8pussJ0/hKa9ZqiH78D94Eu6SZWvgVqxe5uA+47UUVYb6tB4voFcc2R/FdTkGrX7rLAcVDgw/d6nGIr6otWf3ght5L7JNWfbilEU535XnrnxT3Gormwz+ZuQctApjxVnCKm9nGIxovL4NlhLlM0VC/S14fpvFuZwcqF/nXjFssTHmPHY0XPcgXXH5RdDolD2sgQ5z5vkPKYE5wk40NVsl5vZJNDZK/LEgjjEut/IyympvGiS8j555fh225MwP7y2SThOtSkcZyb3dY3cl1xTTmov/ij0aDKuUTifa8GVM9fgcIwj8GB2cegcDtM8WMA7Cn8gVhbsPrwv/RVd7wrwBmYRijpAOET28wiwn2lB5xEHppbUkSXneSH2eeg1BifgHfwCit+/cA3A/lw77P0+ct/hefctXnfwng9ed5p63lHjnxTvAPFycjlD4D//vmYogOViM2y6MNyXz+KjZHPbGJOaR+NkLKqDdagUQ+KgE64ME5kIF9pawFCO6sZSOh3ce/PDtA+gx4ILbbWTV4yyk0/AIAYCYx/go3OZMRKwEC601YzVDNuf96CqiETWIRIF/sEhJdYzEB4MrCbEPKXxMRRUFqOkuhKmyO9khCch/KkNzh76qYyEC20Vwf+NIocN/N8ocjiJ4R6NwwQuNA4TuNA4TOBC4zCBC43DBC40DhO40DhM4ELjMIELjcMA4H+McU7Y5X6w6gAAAABJRU5ErkJggg==;" vertex="1" parent="1">
          <mxGeometry x="1113" y="381" width="154" height="59" as="geometry" />
        </mxCell>
        <mxCell id="YB4SYMOb8FPgEB0KAVOm-29" value="" style="whiteSpace=wrap;html=1;aspect=fixed;" vertex="1" parent="1">
          <mxGeometry x="1339" y="201" width="299" height="299" as="geometry" />
        </mxCell>
        <mxCell id="YB4SYMOb8FPgEB0KAVOm-30" value="" style="shape=image;verticalLabelPosition=bottom;labelBackgroundColor=#ffffff;verticalAlign=top;aspect=fixed;imageAspect=0;image=data:image/png,iVBORw0KGgoAAAANSUhEUgAAAJoAAAA7CAYAAACDv5NcAAAAAXNSR0IArs4c6QAAAARnQU1BAACxjwv8YQUAAAAJcEhZcwAADsMAAA7DAcdvqGQAAAAhdEVYdENyZWF0aW9uIFRpbWUAMjAyMTowOTowOCAyMTowOToyNPM0FNAAAAmkSURBVHhe7Z0NTFvXFcf/iyfzKU9GplCEZcsO4ITNkycyUEREBUoahSYby5I1Zdk6pUmTrGlVKVsnTVuSapHWbVrUtc06kk0hEQ3KytCCiBKhVEWxaGmjWH2twYUYYdmiZFhYsyABr9Z2333PwYA/ngNcG3Z/0tO79zy/T/4+955z7zNfMZlM/wVnVaB59QAaq3LlmkQ4MAT7azcwJsiGDGWdvOasBsJfIvxgFjOBcXgcH+O9My240pz5IhPhHo3DBO7ROEzgQuMwgQuNwwQuNA4TuNA4TOBC4zCBC43DBC40DhO40DhM4ELjMIELjcMELjQOE7jQOExY5bM3ClHZ/jSsGrm6CB/sOzrhlWtJqa9D43Er4h5u5CYuvzAgVzipwD3aCqN/8xj2XYsse2A2yBtiUV2D7Q8/ewyNJwrlDQzRF0D3cgPq2o4+vI7ag/K2JbA256M99EwperQ4aE78GI3VxM89gkcThVZrkisE//ut6PldUK7NR3v6ALbb5mbQBvvb0X1qQq6tILpcaHdtwoYt61FalAuVbI7g7XwD9nNy5RHhHo0Roan7CJG17usbkS2ZFlAKY5koslmExA8yRH+SCPz7VhhkkYVDk/D2C/A+kLYvB1xojJhx3sHIFCnoKmCul2zzaKqAMZ+s/QKcPsnEkvDUBDz9vej59Vlc+W4b7KcGEPiPvHEZ4EJjhg9up9hkamBqKJVMURRtqaCebuy2A9OSiRljJ4m49raj75QA/+2wbF1euNAYErz+OQJknV9WAa1kksgrh8EkNlrjGP3nrGRjSNi/MuKK5pGElr3LisrXn0Zjx1xkIi67O5pRd3oTdFULu5OLUb24Z96+0nIUTeIxfl8H/dYs+ZNriP4BuO+Rdb4ZxibJRPneeujVZD3ihMcjmWJR8kf5eV+sidPPi8P+HdhNny+Jei2yjTGpCc1ihO3iMTQdroO1rBCanPmCUucUoMRWg62vHsX200aIzy4e2pJ532kZFbLFY1RaUfvyITSdr4MuTQ9mZQhi5PY4WWfBtMUsmUjZUGsmzyoMNxFiIsZufg6xmwddJTY0UpMi9NXi8Qneuxh1URNzlAvNshG1v90Ji06qBj0C+s61o/Ols7i84yw6ftmOnp4h+OVIRWvbifoTxVIlBv5ftJD93pi3XPlZK7rO9ULwBMljJ56zxIqtv6qDJk/aZy0QvuCk6Ra1qQIl4n0ZNsKoJ+vQKDyXxE8koNuBYb9YyEXp5sX9vJgYbDDR9AoRst1Bn2s6UCi0ApS90iC599AEHG+dRfeRXng6JzAzLF56GCHHBPxnbqDnR63oG5H6GdrqBliqaVERYdJZnuokUdeRVnS8JdD+DLRWbH6xgG5fE0wPYMRFnpnaDNMzxId/Zz1KiHnKKUBsVRMzieF+0SOS1pd4fSrUJKieko4vCtn3D2pKC8qEtr8G1iKxcB+u1na4uhN8L6aD8LxyFc57ExAudMHVL9tTJNzdi/dvTdKy1mab33le5Yx9PEpzavqqWlhsote/D1+fspxG+MIncIs7E6GWPZusH5uFUqvUqsy4BIyxDmejUCS0uTb+DoROakrM9DiEn7TDeSV2BlwpM9fdoC1FfjF0NmpaG1wWpJya3iZ9gf1ODHbTLcmZHsKw8z4tllTbEgcFkWaZCHn0VhqSc1EoEFopdI9LJa+DcRvvmJRzStnIkfuGawMfRoclsYgEBocwI5eVELjqlLoVSYKCSLOM4F24lQp5hUgutLwC5OWIhSACQ9TCkAD+TZ1iLjRGalgzBC51o/dqL/qu3kDfO1IXQTH9DgzSAdxcmBrKqWkxGphos0zO9cmn5K+XXpILrVqLr8nFZSUvC5p9NbD9pRlNHUexd14+TV669qAy7pydVY5rHGNvC/C8PUQieNmmmFl47G7az1NbvglDrBkh1Rthpv3qSbivpyjkFUBZMLDcbLah9uIhNO7fBIu+ANk5KmkwV/xJpsgittEqyc6JwSW5n4diGJ9aHBRk15ulAMpLolwHNaWV5ELrJ80XLWRBvRyuTczH/bwWerE5fjAB17t/R8fzch5tdws6I8tO0dYOId0+P2PxYZD0YUUWBwUFMG6QUkJjwkDacmfRJBfaNOmQ0yRsFnRlS2/HND/YJOXjpobQ83w7HH8bR2ipE8b+T5l5ZwBjYmFhUFD/DZjF4CnkxvAF9mOnsVDQdPrg/0IqxZ9LpRQNioySWP23P4Cf5i4SkPc4tEvU9rrlHFVQfVUuZAgeB4bF5O+CoECzxUino4dG7qY1dxaNoj6at1/qeEL3LVQdnv8bqqlBml8awZJWM5i8TVQfqABNA6WKOyiNCaIQBdtoYUlMB+RUxGOFyLQsS2T8cy4oKIWZRlCzGLnFPE0QF2XBwKUPIdDxERX0u36I2kceEprAFE0AAUXl8cJyiexnd+DJrSQ4E+byTYrxEC9MdZwF0zZrwsF9JYQ/+5eUHsipgGVJX7QV4OH4ZzE2PEP+Lo0VKBUnUE65Maokuc4IZUITx9heuwkvdWtZ0G9vxt62JlT+1Ih8Wy5UkeZJn4tsmwbZ280wHK6BPkYy0feZNFantjyB+hNm5Ee7LF0u8pussJ0/hKa9ZqiH78D94Eu6SZWvgVqxe5uA+47UUVYb6tB4voFcc2R/FdTkGrX7rLAcVDgw/d6nGIr6otWf3ght5L7JNWfbilEU535XnrnxT3Gormwz+ZuQctApjxVnCKm9nGIxovL4NlhLlM0VC/S14fpvFuZwcqF/nXjFssTHmPHY0XPcgXXH5RdDolD2sgQ5z5vkPKYE5wk40NVsl5vZJNDZK/LEgjjEut/IyympvGiS8j555fh225MwP7y2SThOtSkcZyb3dY3cl1xTTmov/ij0aDKuUTifa8GVM9fgcIwj8GB2cegcDtM8WMA7Cn8gVhbsPrwv/RVd7wrwBmYRijpAOET28wiwn2lB5xEHppbUkSXneSH2eeg1BifgHfwCit+/cA3A/lw77P0+ct/hefctXnfwng9ed5p63lHjnxTvAPFycjlD4D//vmYogOViM2y6MNyXz+KjZHPbGJOaR+NkLKqDdagUQ+KgE64ME5kIF9pawFCO6sZSOh3ce/PDtA+gx4ILbbWTV4yyk0/AIAYCYx/go3OZMRKwEC601YzVDNuf96CqiETWIRIF/sEhJdYzEB4MrCbEPKXxMRRUFqOkuhKmyO9khCch/KkNzh76qYyEC20Vwf+NIocN/N8ocjiJ4R6NwwQuNA4TuNA4TOBC4zCBC43DBC40DhO40DhM4ELjMIELjcMA4H+McU7Y5X6w6gAAAABJRU5ErkJggg==;" vertex="1" parent="1">
          <mxGeometry x="1392.5" y="440" width="154" height="59" as="geometry" />
        </mxCell>
        <mxCell id="YB4SYMOb8FPgEB0KAVOm-31" value="" style="rounded=1;whiteSpace=wrap;html=1;" vertex="1" parent="1">
          <mxGeometry x="1389.5" y="439.25" width="175" height="60" as="geometry" />
        </mxCell>
        <mxCell id="YB4SYMOb8FPgEB0KAVOm-35" value="" style="rounded=1;whiteSpace=wrap;html=1;" vertex="1" parent="1">
          <mxGeometry x="1389.5" y="379.25" width="175" height="60" as="geometry" />
        </mxCell>
        <mxCell id="YB4SYMOb8FPgEB0KAVOm-32" value="" style="shape=image;verticalLabelPosition=bottom;labelBackgroundColor=#ffffff;verticalAlign=top;aspect=fixed;imageAspect=0;image=data:image/png,iVBORw0KGgoAAAANSUhEUgAAAJMAAAAwCAYAAAAVbUhVAAAAAXNSR0IArs4c6QAAAARnQU1BAACxjwv8YQUAAAAJcEhZcwAADsMAAA7DAcdvqGQAAAAhdEVYdENyZWF0aW9uIFRpbWUAMjAyMTowOTowOCAyMDo1Mzo1OcPumgoAAAsLSURBVHhe7ZwLbBP3Hce/xZB3nTo4JKTxYtnkAQEXT4FkKCg8ykNJaZehrDw3KloorLSaBO2mbaKgorXbVNTSUgZj4zEgCrBsREGwiKkZVmgAYeHVwSQ4i2XXhMWLW5OHbWp1////LiEPP86xSUl2H+nk//3su/Pdfe//e/z/9hMqleobiIhEgQn8q4hIxIhiEokaophEooYoJpGoIYpJJGqIYhKJGmO4NJCK/MpV0Ej51WHYoCuthpVfC8miEpRt1yDg7lov4dRrTfyKiD9EMfXxCMSk+GgbilX8CtpxdctpmC386lAKi7B85xzI+FVXYyVqd3Xwa48aCZJWz0H2AjWUaSmIi+HN8MHt6sS9m9dw45AZbgdvDsD4K1r2iyJMMQVAuvPHKCskEotYTIDj06Oo+42LXxuMbM9GLNcm8GujJ6aYlSUoXqNBWjxvCISvE4YDlTDW+njDcMSYaRTwdvXAS17lM2cgjjMNIRPKbCokD7z0g6OE9M1VWLGRF5LPBWtjPep+fRhVFftwqnQfqnZUoq6uDS6qH0kKND9Zh/xFbFO/iGIaBdzGG2jtIg15LtT+bkZ5LpRJ5NVhgNHGmR45GUTAz6SCejSX8SKqVx2FbpcBjss98HVzH/EZO+DYW4PaHZdgZSKXQvOiljhF/4hiGhVsMBupe5NCtTiTMw0gbX4u67Hs1/Xg7+Ojx26DYdNp1FedIGJphjvYgU1NuFJrY70rFNOgzGLWYYhiGiVcF27DSV6TsnP7g2xGYg6yVPRZb0fb3zycbbTobof9SCe/Ehzfydu4x1rpSFvMGsMIW0xxz2uQ/8EqlJ3ditXnt/UvK8+uRcmeOZAXBOoEHyJ5vWLQttyyFeV0H78tgWJJLP/JcURjE8z0biSRjKmcMzF+MA0K6mtajbAEyvQIGe/z1/tYUYC4KwDrS7GSXd8KqPN420jo7oCTzx0S5f5zXuFiylNCe2wbyl8tgSY7FdL4waKJiU9BhrYIS3ZvxfI9SuaLAyHLGPRs8kgQR/eRr0HxTzeh/A8lkEdy8o8dLrRebyevsVDNV3Mm0s4qVpNr5YOZiC0Y9ku3QcMuyPMxvYyZBKEopPsnWO+gzcRMERMT7/9hFyamvBkofncF8uTcqstiQMOhSlS/sZ9E/ftx9hc06m+Go5d7X6ZdgUU707kVPzh+dpBlCwOXqh1HUXOoHgaLi1xa0gNmaLDkVyWQJnLbjAd8R4ysVBGjykUGPa+sGVAqyKu3DZbj9BNBqNWjhdV5EpA5b3jc5ZcsLVSsNEHEqtOz6zpyJP2B91f3/JcsBIgpBdlvLea6Ym8H9B/vR+2WeliqO+BuoV/PB6+eRv0XUfejo2ho5fy+rHAx8gpZUxA+EqB2VZNsZstRnP3YwOILyDSY93oKe39c0N2EVhO5ZjFqqNaQ2/PCNGQQc5fRwMcjwehESyPt2YinJL03E2MIJM9x+6ditf2FmUZO1lTImHfzoDvAlw0tpvVF0KTRRg9MRythClK0QrcLlrfOwUiUazhSA1Mjbw8TX209Pr3MBYYyrXZwwDrGsV9rY1mRoqAYeVrae/fA1iCsHuA7chNmujERY/aGUHFlLDI1nHdwmwywR5omLlVywgTpOP7OGsMIKaaHPvcGDNXMFBySIRheqoSxyn+lVyjuC2awXj0pHXItM40PThm4mpNCyz2kDiNu1bJ3QtPdjBZjD2tmFGqDB+J9LpSIte1ypMWrBKgLeddqbQsozBBiyoR8Ktey6iP1uWGi7+RrLnGI52O18YENbS2cICjOW81w820hOM8ZuRAgRCDe50LhugOzULEGYvUCzGY7I97pQmAdBBdTYgoS2ZiNC85mZhlFnPiKdW4JkCqZYdzgPF6L+nP1aDh3EQ0nhdV5+mnU4xYbcEyAanEOMw1HChVzoeRYN/9F7l4EJGZCW857J/sNGIN4p+BiKpQhmW9GlcRYSFcXQfv7tSg/uxU/HFRv4peaCuQHHMIf45jaYT9ggOVAM8mMeZtgPLDozCzuisl7Bln+qtGFM6BmcW4nzBfCFOsgEqB4rxR5dKiHznr4nZ6rggcgdAAebeZpUXxsE8rWz0GeIgVx8VzK6ev1wN230H5U8jAVFRnCcT7uQjqUzw0PxOMWqbmkxUqyRz0zjQAJZLsrUKyi+/fAWl0Lc4g6VXAxNRJXwxqxiIlGF0XrVW8WQ0FdZ28HTGdO4+xmvs608iCq+5YV1FYJQ2Qx/DjGhlskpqQMD8RToJzOlVPshqYRxrkJkL+7DssLqGvwwH7hDHSHHsZ5gQgupm4SBLNCZCzk2ZH7HOmLc7h6VVcz6jZXQv/HdngjnXD0f4r7ZBPstDE0EF80C2qasHjNaDkygrE+EierP1mHJWzWISek+g+FucoQbs4Gx12uFXgujlCkSFNygnRcvwJHiFl7SOwrko2cCdGsnksm8o3HBIseLbQAOiQQl85XkitNtNR6J/za0jwN5v1pLeZmUdfWA/OpPwsWEiVkzGRt5II9yL+LglcfzgQMH+Iq+dl8va7Q/itmYy5YmSRczC5uDAupSFnKGhHR7eS79ympeNwqFH3jdQ8D8UyoWdbiQevlcNJvEh/9fBXKf1mCLBpsd7Wh4Z3DuHo8tGsbSOgA/PhnMLDyuQSK59eheMTDGx3oYgUSIC0nUErLEbehFMuWkKTHEN7JMCykN2VajYVqqSbogLMQfJ//h0ut43ORF9HD9AjoH69Lx/Q15L6U5SKTicGMNiEFZoKkRIO5lVuxfH4q8zxO/XlUv1QDSwP3fjhIZDLZ23w7AL3ovN2FpxaqkEy6+uRpGswofRqY6kbv11747j/ANw/IxxQJiFPHY+LsTDz9bC6kaTa4Wrg99NGlzEJ+ThIkcgWmTPsSHa1OePs6KXkCkpZNR/72FzC/KBVo/ieud2UiJzMW3TYT7n7hoTNLBdCD+6psTFfGQ/KUEqqFT6Lb+1+4PXR7CWK0T0K6MBfK702C44aAHf77PvCsBhlJE5Ccm48pM3rxpbMbD+h5J5Nzzp2Myd+fiRQ/55tcWojvkLTK88XnaKkX9mCEt00vnBncNY2fPBGeRCWUUyfBpb8Eg5DjbViBis2zMZl6NW8HDMf/Cr2O9HXEMHFq8GXCpOH3Q/gPCvKU5EYvhSYj1JgQh7PhBC68M9TfJkDxAendsoPvw23RoW67HhO285P5B2Ct3kcyC34lIOQ4H5HjsLQ2AE49atbqeJcYAjZrgh/sDoC/8+37QUE4Pw4Ie5vEHMw9sQzq/u/WCf2uE8LGRV8px+pygTMQhuDv+4V2c32Y2mB8+SCq9p6HXt8OZy9RJv9WPz4fqxM5rW1wOP1ViXpgfeMwas4YYHV64B2wA5+XbGcxQLf3IKq36NEV0cAkOc5r/o/DvqOrA9Zbd8lzLRBTE3QvV0LXaCPn7Rt03vR7u+7ZYDVHOpI6QgaM1zGsTWgZ4QB7pIj/zzQuSEHesbXQyn0kA9tPAmfePMoI75lEHlskr5Qgn6aaLiNM35KQKKKYxjpZOSgsy2RTf62XPotsUDdCRDGNZRLTkf32AmTR4Nt+BVcPjfKvW4YgimmsolFD+0kFCtJIxuq1QRdiRH80EAPwsQKt4ymnICU/HRmF+VClJXCzKuh/AHx4AsY69qlvFVFMYwTp7o0oKxhcgfc5m6F77yLsBt7wLSO6ubGC72tuzpezHRb9Nfxj70FUrX18hEQReyaRqCH2TCJRQxSTSNR4YtbMWaKbE4kKYs8kEjVEMYlEDVFMIlFDFJNIlAD+B/FW8Yofl244AAAAAElFTkSuQmCC;" vertex="1" parent="1">
          <mxGeometry x="1397" y="447.75" width="160" height="52.25" as="geometry" />
        </mxCell>
        <mxCell id="YB4SYMOb8FPgEB0KAVOm-36" value="" style="shape=image;verticalLabelPosition=bottom;labelBackgroundColor=#ffffff;verticalAlign=top;aspect=fixed;imageAspect=0;image=data:image/png,iVBORw0KGgoAAAANSUhEUgAAAJoAAAA7CAYAAACDv5NcAAAAAXNSR0IArs4c6QAAAARnQU1BAACxjwv8YQUAAAAJcEhZcwAADsMAAA7DAcdvqGQAAAAhdEVYdENyZWF0aW9uIFRpbWUAMjAyMTowOTowOCAyMTowOToyNPM0FNAAAAmkSURBVHhe7Z0NTFvXFcf/iyfzKU9GplCEZcsO4ITNkycyUEREBUoahSYby5I1Zdk6pUmTrGlVKVsnTVuSapHWbVrUtc06kk0hEQ3KytCCiBKhVEWxaGmjWH2twYUYYdmiZFhYsyABr9Z2333PwYA/ngNcG3Z/0tO79zy/T/4+955z7zNfMZlM/wVnVaB59QAaq3LlmkQ4MAT7azcwJsiGDGWdvOasBsJfIvxgFjOBcXgcH+O9My240pz5IhPhHo3DBO7ROEzgQuMwgQuNwwQuNA4TuNA4TOBC4zCBC43DBC40DhO40DhM4ELjMIELjcMELjQOE7jQOExY5bM3ClHZ/jSsGrm6CB/sOzrhlWtJqa9D43Er4h5u5CYuvzAgVzipwD3aCqN/8xj2XYsse2A2yBtiUV2D7Q8/ewyNJwrlDQzRF0D3cgPq2o4+vI7ag/K2JbA256M99EwperQ4aE78GI3VxM89gkcThVZrkisE//ut6PldUK7NR3v6ALbb5mbQBvvb0X1qQq6tILpcaHdtwoYt61FalAuVbI7g7XwD9nNy5RHhHo0Roan7CJG17usbkS2ZFlAKY5koslmExA8yRH+SCPz7VhhkkYVDk/D2C/A+kLYvB1xojJhx3sHIFCnoKmCul2zzaKqAMZ+s/QKcPsnEkvDUBDz9vej59Vlc+W4b7KcGEPiPvHEZ4EJjhg9up9hkamBqKJVMURRtqaCebuy2A9OSiRljJ4m49raj75QA/+2wbF1euNAYErz+OQJknV9WAa1kksgrh8EkNlrjGP3nrGRjSNi/MuKK5pGElr3LisrXn0Zjx1xkIi67O5pRd3oTdFULu5OLUb24Z96+0nIUTeIxfl8H/dYs+ZNriP4BuO+Rdb4ZxibJRPneeujVZD3ihMcjmWJR8kf5eV+sidPPi8P+HdhNny+Jei2yjTGpCc1ihO3iMTQdroO1rBCanPmCUucUoMRWg62vHsX200aIzy4e2pJ532kZFbLFY1RaUfvyITSdr4MuTQ9mZQhi5PY4WWfBtMUsmUjZUGsmzyoMNxFiIsZufg6xmwddJTY0UpMi9NXi8Qneuxh1URNzlAvNshG1v90Ji06qBj0C+s61o/Ols7i84yw6ftmOnp4h+OVIRWvbifoTxVIlBv5ftJD93pi3XPlZK7rO9ULwBMljJ56zxIqtv6qDJk/aZy0QvuCk6Ra1qQIl4n0ZNsKoJ+vQKDyXxE8koNuBYb9YyEXp5sX9vJgYbDDR9AoRst1Bn2s6UCi0ApS90iC599AEHG+dRfeRXng6JzAzLF56GCHHBPxnbqDnR63oG5H6GdrqBliqaVERYdJZnuokUdeRVnS8JdD+DLRWbH6xgG5fE0wPYMRFnpnaDNMzxId/Zz1KiHnKKUBsVRMzieF+0SOS1pd4fSrUJKieko4vCtn3D2pKC8qEtr8G1iKxcB+u1na4uhN8L6aD8LxyFc57ExAudMHVL9tTJNzdi/dvTdKy1mab33le5Yx9PEpzavqqWlhsote/D1+fspxG+MIncIs7E6GWPZusH5uFUqvUqsy4BIyxDmejUCS0uTb+DoROakrM9DiEn7TDeSV2BlwpM9fdoC1FfjF0NmpaG1wWpJya3iZ9gf1ODHbTLcmZHsKw8z4tllTbEgcFkWaZCHn0VhqSc1EoEFopdI9LJa+DcRvvmJRzStnIkfuGawMfRoclsYgEBocwI5eVELjqlLoVSYKCSLOM4F24lQp5hUgutLwC5OWIhSACQ9TCkAD+TZ1iLjRGalgzBC51o/dqL/qu3kDfO1IXQTH9DgzSAdxcmBrKqWkxGphos0zO9cmn5K+XXpILrVqLr8nFZSUvC5p9NbD9pRlNHUexd14+TV669qAy7pydVY5rHGNvC/C8PUQieNmmmFl47G7az1NbvglDrBkh1Rthpv3qSbivpyjkFUBZMLDcbLah9uIhNO7fBIu+ANk5KmkwV/xJpsgittEqyc6JwSW5n4diGJ9aHBRk15ulAMpLolwHNaWV5ELrJ80XLWRBvRyuTczH/bwWerE5fjAB17t/R8fzch5tdws6I8tO0dYOId0+P2PxYZD0YUUWBwUFMG6QUkJjwkDacmfRJBfaNOmQ0yRsFnRlS2/HND/YJOXjpobQ83w7HH8bR2ipE8b+T5l5ZwBjYmFhUFD/DZjF4CnkxvAF9mOnsVDQdPrg/0IqxZ9LpRQNioySWP23P4Cf5i4SkPc4tEvU9rrlHFVQfVUuZAgeB4bF5O+CoECzxUino4dG7qY1dxaNoj6at1/qeEL3LVQdnv8bqqlBml8awZJWM5i8TVQfqABNA6WKOyiNCaIQBdtoYUlMB+RUxGOFyLQsS2T8cy4oKIWZRlCzGLnFPE0QF2XBwKUPIdDxERX0u36I2kceEprAFE0AAUXl8cJyiexnd+DJrSQ4E+byTYrxEC9MdZwF0zZrwsF9JYQ/+5eUHsipgGVJX7QV4OH4ZzE2PEP+Lo0VKBUnUE65Maokuc4IZUITx9heuwkvdWtZ0G9vxt62JlT+1Ih8Wy5UkeZJn4tsmwbZ280wHK6BPkYy0feZNFantjyB+hNm5Ee7LF0u8pussJ0/hKa9ZqiH78D94Eu6SZWvgVqxe5uA+47UUVYb6tB4voFcc2R/FdTkGrX7rLAcVDgw/d6nGIr6otWf3ght5L7JNWfbilEU535XnrnxT3Gormwz+ZuQctApjxVnCKm9nGIxovL4NlhLlM0VC/S14fpvFuZwcqF/nXjFssTHmPHY0XPcgXXH5RdDolD2sgQ5z5vkPKYE5wk40NVsl5vZJNDZK/LEgjjEut/IyympvGiS8j555fh225MwP7y2SThOtSkcZyb3dY3cl1xTTmov/ij0aDKuUTifa8GVM9fgcIwj8GB2cegcDtM8WMA7Cn8gVhbsPrwv/RVd7wrwBmYRijpAOET28wiwn2lB5xEHppbUkSXneSH2eeg1BifgHfwCit+/cA3A/lw77P0+ct/hefctXnfwng9ed5p63lHjnxTvAPFycjlD4D//vmYogOViM2y6MNyXz+KjZHPbGJOaR+NkLKqDdagUQ+KgE64ME5kIF9pawFCO6sZSOh3ce/PDtA+gx4ILbbWTV4yyk0/AIAYCYx/go3OZMRKwEC601YzVDNuf96CqiETWIRIF/sEhJdYzEB4MrCbEPKXxMRRUFqOkuhKmyO9khCch/KkNzh76qYyEC20Vwf+NIocN/N8ocjiJ4R6NwwQuNA4TuNA4TOBC4zCBC43DBC40DhO40DhM4ELjMIELjcMA4H+McU7Y5X6w6gAAAABJRU5ErkJggg==;" vertex="1" parent="1">
          <mxGeometry x="1403" y="381.5" width="154" height="59" as="geometry" />
        </mxCell>
        <mxCell id="YB4SYMOb8FPgEB0KAVOm-37" value="" style="shape=image;verticalLabelPosition=bottom;labelBackgroundColor=#ffffff;verticalAlign=top;aspect=fixed;imageAspect=0;image=data:image/png,iVBORw0KGgoAAAANSUhEUgAAAJEAAAAvCAYAAADjGCgmAAAAAXNSR0IArs4c6QAAAARnQU1BAACxjwv8YQUAAAAJcEhZcwAADsMAAA7DAcdvqGQAAAAhdEVYdENyZWF0aW9uIFRpbWUAMjAyMTowOTowOCAyMTowOToyNPM0FNAAAAk8SURBVHhe7ZwLbFPXGcf/wzTvOnVwSHDtxbJJbOLOmyeYMxSUAeWhpLTLEFtbxtaJri2otJrE1knTRFsNaS8NdW1ZB9vEQ5SINYsGSgWKmJphpU2LsOrVwSQ4i2U3hMWLO+O8TK3uPG4gAcexfZ0mmPOTru6533353vzv933nOwe+YDAYPoNAIIMF0logSBshIoFshIgEshEiEshGiEggmyzsnZXC0vQorEpp8zYCcNS3wC9tzciaOjTstmLay/WexfFnu6SNuxPhieYA3Wu78NjbE8sWGCukHfGw12DjjWN3oWFPqbRj/nD31IlueJQUPdE0KPd8Hw124p/S8ERURLUGaYMQfOcw2n4dlramotq7HRttBdIWEO5sQutLg9LW/EB4ojkkGhlBlKzVD1Qjj5tuQQt9JRXQOKL0wHmKENEcMua+gN4IaahNMK7htik0mqAvIuugC+4AN81HhIjmlAC8bhrGlDCs1XLTJMpWmZiH6j/vxDA3zUuEiOaY8OlLCJF1UaUJKm7iFFahwqAgjQH0/X2c2+YpGRNR3sNWWF55FA3NOyf1PHZhc/NW1O1dAfVy+kISo3huy5Rz+bITjfQav6mDbl2udGQW0dkF71WyLjJC38hNjG8thS6HrHvd8Pm4KR6a30nv+0jNNHnVNGyrx2b2fknv0CzZ0kS+iMx62I7sQuMzdbBWlkKZP1UsOfkl0NhqsO7lndi4Vw/6XqZDpZnyLUookEevYbGi9kdPofFPdVDLfOj5RRi95wfIOheGVUZuIu2KWiN5VzF4icgS0X/2EmhaBbUFyxqYKSl0dnp9gv8y+jzMlDbyRGSuRu0vN8Gs5pthnwsdB5vQ8vx+HK/fj+afNaGtrRvBUb5fZduENXvK+UYcgj89QM57dcpy4seHcepgO1y+MHmlxONprFj38zooC/k52UDskJuVHHIMJmjoc1VUQ68j62gffEfpEQlodaInSBsF0K68Pa+KS4UNBlZiICJ1ONl7lYMMEZWg8oW13OVGB+F8fT9ad7TD1zKIsR76s2KIOgcR3HcGbd87jI5eHtdV9rUw21kzKWIk8Yy0kN7JjsNoft3F8georFj5XAnbnxUMd6HXQ95ZjhGGx4nvfWQpNMQccbtAI11ihtDTST0ZiYjEWzMRzoDiIX59KtLA35hJFumLaFsNrGW0MQLP4SZ4WhPoeTgM3wsn4b46CNehU/B0SvYUibW2451zQ6ytstmmJqJ3OP0f9LGakW55Lcw26q1HEOhIrl8fO/QhvPRkIsLKJ2bKG3OhtfJoMOZxoT8D3b60RXQzpl6Aq4WZEjM8ANcPmuA+Eb8ymyxjp71g3ruoHGobM2UHx128ZqSz8Y8z6MbFVrZnZoa70eMeYU2N3ZY4wZ4IlUSkfecyU3xKU0RaqJfwlt8pP6amhHNIqpnkIV/KxbKDAPp6uBAooYvdGJPayRA66eahfoYEeyJUInwZ3mRFOgPpiaiwBIX5tBFGqJtZPkdC+B9zZgVQ6pkhawgdbUX7yXZ0nDyDjjd52E6aTicusgHBAhjWVjHT7ShhYKGS3OvDf5G/XmZIT0R2FYqlZkYpzIXysRrY/rgVjc078e0p9SJpObUFlmnnZdzheAbQ/4YLvje6SU9XsiXNOHwOL8urcsxfRkW8mQH2ahhZHjsE7+kURZqA9BPrTLPShtojT6Fh2wqYdSXIy1eAVpxio+MYm1ho3FRwuyAOR6W8CuXQP3R7gp23xsg7I37SG3QyU0ZIT0SdJKSwRi5yMuGSaL3pJ7XQ0RA5OgjPW39F89NSnWjzAbRMLJuorQmuTPnhrCOAiyRnpNyeYJdAv4yXRfpdXRnNY9MT0TBJblkBMRfqSvmxRfmdFbzeFOlG29NNcP5lAFG5E37uUsbe7EI/bdyaYK/5Eoy0IxL1oudQZsfi0gxnAQSv8Nb0c2GSRYkyPRdi8Py7CLL+ewIKl0AlU7cLMlntViyUGvMEnxM9tHB5S4KtXKVnU3yjvZczUhuaTNo5kb+TJ3FQfxXLn7k58y51SEhkPT0SycIzx6mc7SawMkeqeMN8jAmlKFnPGrIYDknd8cWlmG+VhonxtJsJthZG1hsZR++5zHen00+sj74HF6vJK6B7+LuoTXsYYhARVuAAyqqm65py8p6ox4Z1pBPjullPSRof8Z5Mo7kwrLcmHAhOhthH/+Fd5HwTzLI+olngxnhaOZY9Tv4uDSZo6eS2iBd9yRSGU0ShUqlelNopMoqhSxHct9qAYuLSi5daUV1/P7BkDKOfRhG7dh2fXSeH6QqQZ8zHwq9ocf+DJijLAgj38CtMENFXwFJVBIVah8VLP8FgbwjRCaekLkDRhmWw7H4Eq2pKge5/4nxEiyptLoYDHlz5eByxpBLtEVwzVGKZPh+K+/QwrL4Xw9H/Ymycnq9Aju1eKFeboP/6PQheSOKC/74GPGiFpmgBik0WLK4exSehYVynz11Mntm0CIu++QBK4jxvcb0dXyTdpPGPP0JPe3IfRGrnjCKk4e80f9FCjBfqoV9yD8LOs3Aleb9UkD9R36wnf+D1sGqSm+sT6jiG07+4tUZRAN0rxJtVJr7GmM+Btt1OLNgtTZKfhL/lVTgOShvTQu7zGrmPIcF9Qk6c2uqQQt8MsFkM0iD0NMR73omJ+qlMuk/5nMIqfO3YBhhv/LYhOF86lva4ZSLSD2cTePrgfvIATux7G07nAEKj5MuWdt0gFmN1npC/D8FQvCrPCPzP/xmn3nLBHxpHdNIFYlFyns8Fxz7Sxd/hRERWUkju82z8+7DfGB6E/+IV8h0niacLjieb4OgMkOeOTXlu+rvDVwPwe+doYuuk8TSGvws9syAgivivZbKaEpiPbIVNHYP3+H68P9PcpDSR74kE8xbFD+tgoV3HsBueWRIQRYgoW6mogr1By6bY+s++l7HB1ngIEWUjheWofPEbqKBJdf+7eP/g7P5rESGibMNqhO0PW7C8jPRAowE4fuvkReFZRCTWdzq0DqdfjBJLOTR2CwxlBXyWQ2wIrt8fg7uNHTWrCBHd4Shf3o6G5VMr5rFQNxy/OoN+l2SYZUQ4u9OJfcrnXIUG4HN+gH/sO4ATWz8/AVGEJxLIRngigWyEiASyESISyEaISCAbISKBbISIBLIRIhLIBPg//OAynnhe/SUAAAAASUVORK5CYII=;" vertex="1" parent="1">
          <mxGeometry x="1105.7" y="324" width="166.6" height="54" as="geometry" />
        </mxCell>
        <mxCell id="YB4SYMOb8FPgEB0KAVOm-13" value="&lt;h1&gt;2&lt;br&gt;&lt;/h1&gt;" style="triangle;whiteSpace=wrap;html=1;align=center;" vertex="1" parent="1">
          <mxGeometry x="1337" y="400" width="60" height="80" as="geometry" />
        </mxCell>
        <mxCell id="YB4SYMOb8FPgEB0KAVOm-38" value="" style="curved=1;endArrow=classic;html=1;exitX=0.091;exitY=1.011;exitDx=0;exitDy=0;exitPerimeter=0;entryX=0.651;entryY=1.035;entryDx=0;entryDy=0;entryPerimeter=0;fillColor=#008a00;strokeColor=#005700;strokeWidth=7;" edge="1" parent="1" source="YB4SYMOb8FPgEB0KAVOm-29" target="YB4SYMOb8FPgEB0KAVOm-1">
          <mxGeometry width="50" height="50" relative="1" as="geometry">
            <mxPoint x="1020" y="390" as="sourcePoint" />
            <mxPoint x="1070" y="340" as="targetPoint" />
            <Array as="points">
              <mxPoint x="1130" y="560" />
              <mxPoint x="1010" y="670" />
            </Array>
          </mxGeometry>
        </mxCell>
      </root>
    </mxGraphModel>
  </diagram>
</mxfile>
